<?xml version="1.0" standalone="no"?>
<!DOCTYPE svg PUBLIC "-//W3C//DTD SVG 20010904//EN"
 "http://www.w3.org/TR/2001/REC-SVG-20010904/DTD/svg10.dtd">
<svg version="1.0" xmlns="http://www.w3.org/2000/svg"
 width="1064.000000pt" height="1280.000000pt" viewBox="0 0 1064.000000 1280.000000"
 preserveAspectRatio="xMidYMid meet">
<g transform="translate(0.000000,1280.000000) scale(0.100000,-0.100000)"
fill="#000000" stroke="none">
<path d="M1860 12780 c-30 -12 -93 -24 -140 -29 -166 -15 -394 -98 -965 -351
-170 -76 -371 -163 -445 -195 -254 -108 -348 -168 -294 -189 25 -10 293 -35
543 -51 129 -9 267 -20 305 -26 98 -16 208 -53 269 -93 53 -34 139 -116 122
-116 -6 0 -62 16 -125 36 -112 35 -118 36 -240 31 -131 -6 -192 -19 -172 -39
6 -6 48 -13 94 -17 l83 -6 -84 -28 c-46 -16 -123 -33 -170 -38 -158 -18 -461
-102 -539 -149 -27 -17 -32 -24 -22 -35 23 -28 68 -36 533 -100 232 -32 317
-51 317 -72 0 -4 -21 -29 -47 -56 -40 -40 -45 -49 -33 -58 8 -5 35 -8 60 -5
l45 4 -37 -34 c-52 -47 -74 -82 -60 -96 19 -19 56 0 147 76 162 135 132 77
-51 -99 -68 -66 -124 -128 -124 -137 0 -33 45 -20 120 35 117 84 118 84 85 46
-16 -18 -74 -80 -128 -136 -88 -91 -97 -104 -87 -122 17 -33 53 -25 111 24 54
46 79 56 79 31 0 -8 -34 -65 -75 -127 -42 -62 -74 -117 -72 -123 2 -6 13 -12
24 -14 26 -4 76 39 133 113 42 54 70 70 70 39 0 -9 -22 -67 -50 -129 -48 -109
-60 -155 -40 -155 16 0 49 42 103 129 29 47 53 78 55 70 1 -8 -20 -70 -48
-138 -51 -122 -72 -212 -52 -225 9 -6 39 23 90 89 16 20 21 23 17 10 -4 -11
-9 -45 -12 -75 -4 -45 -2 -58 12 -70 15 -13 19 -12 31 5 7 10 21 39 30 64 10
25 24 62 33 81 l15 35 4 -33 c2 -18 -1 -68 -6 -110 -11 -96 -6 -144 20 -172
32 -34 43 -20 44 56 1 38 7 83 14 99 l13 30 8 -45 c11 -54 54 -146 74 -154 15
-6 18 1 35 86 6 32 16 61 22 64 8 5 9 -26 5 -107 -8 -124 2 -164 38 -164 24 0
30 26 54 225 l17 145 0 -247 c-1 -223 1 -249 17 -265 16 -16 17 -15 17 35 0
29 4 52 9 52 12 0 66 -105 90 -177 14 -41 21 -88 21 -137 0 -82 6 -106 25
-106 23 0 28 -32 36 -240 4 -113 8 -208 8 -211 1 -3 10 -16 21 -29 11 -13 20
-36 20 -52 0 -15 9 -36 19 -45 16 -13 18 -25 14 -67 -7 -64 16 -126 46 -126
18 0 19 -4 11 -24 -9 -26 -3 -89 12 -118 5 -10 17 -18 28 -18 11 0 24 -9 30
-19 15 -28 13 -33 -10 -26 -11 3 -20 4 -20 1 0 -2 33 -91 74 -198 85 -224 144
-351 216 -463 28 -44 76 -129 107 -190 61 -122 99 -178 116 -172 7 2 24 -17
39 -42 30 -53 238 -314 271 -342 12 -10 33 -21 47 -24 35 -8 91 -55 288 -242
118 -111 183 -165 209 -174 37 -12 195 -99 263 -145 l35 -24 -96 0 c-57 0
-116 -6 -147 -15 -54 -16 -122 -67 -122 -90 0 -23 -16 -25 -70 -9 -32 9 -67
13 -88 9 -56 -10 -124 -83 -181 -194 -94 -184 -123 -317 -85 -397 19 -40 224
-217 277 -239 20 -8 53 -15 73 -15 32 0 46 -9 116 -79 94 -95 145 -122 238
-129 135 -9 286 64 278 135 -3 25 -6 28 -35 25 -19 -2 -33 1 -33 7 0 20 -40
11 -112 -25 -71 -36 -178 -58 -178 -36 0 5 41 40 90 77 50 37 90 71 90 75 0
11 -110 110 -122 110 -6 0 -17 -8 -23 -17 -13 -17 -14 -17 -32 0 -26 23 -35
22 -63 -8 -30 -32 -43 -31 -69 1 -26 33 -16 48 42 63 24 5 53 21 66 35 12 13
48 90 80 172 31 81 64 152 72 157 13 8 30 0 77 -37 34 -26 76 -53 94 -61 18
-7 50 -29 70 -49 20 -20 44 -36 52 -36 8 0 35 -15 60 -34 l45 -35 -15 47 c-7
26 -14 48 -14 50 0 1 7 2 16 2 9 0 24 10 35 23 27 32 40 7 32 -65 -6 -60 -1
-67 31 -43 43 33 61 7 29 -42 -16 -24 -16 -26 2 -39 10 -8 31 -14 46 -14 33 0
44 25 34 73 -20 88 -94 180 -278 341 -43 38 -75 72 -70 76 11 11 107 30 148
30 18 0 40 7 49 15 22 22 59 19 201 -20 202 -56 318 -98 404 -148 124 -73 346
-160 529 -208 45 -12 82 -25 82 -30 0 -21 -113 -34 -515 -59 -292 -19 -344
-32 -382 -99 -31 -53 -171 -164 -263 -207 -41 -20 -89 -42 -105 -50 -47 -23
-150 -119 -169 -158 -24 -50 -22 -197 4 -253 29 -65 90 -73 90 -12 0 28 23 50
38 35 3 -4 7 -46 7 -94 2 -76 6 -96 34 -154 51 -107 144 -176 226 -166 28 3
30 6 28 40 -4 70 -111 248 -149 248 -8 0 -23 -9 -34 -20 -20 -20 -20 -20 -35
10 -8 16 -15 38 -15 50 0 18 6 20 73 20 104 0 117 18 72 102 -14 26 -25 52
-25 58 0 22 49 60 78 60 16 0 35 6 41 14 9 11 6 18 -15 33 -34 25 -27 47 20
67 28 11 36 22 41 49 4 20 18 45 31 58 31 29 30 43 -6 69 -16 12 -30 26 -30
31 0 18 49 9 64 -13 13 -18 26 -23 69 -23 78 -2 117 -31 117 -89 0 -40 -18
-118 -42 -178 -17 -45 -47 -46 -85 -4 -51 56 -42 82 29 77 32 -1 38 1 38 19 0
11 -4 20 -10 20 -5 0 -19 9 -30 20 -15 15 -18 28 -14 52 l6 33 -21 -25 c-32
-39 -167 -316 -196 -404 -30 -89 -30 -87 33 -231 17 -38 33 -78 36 -87 4 -12
16 -18 37 -18 18 0 51 -11 73 -24 82 -47 119 -44 213 21 53 37 82 38 63 2 -14
-26 -95 -66 -150 -74 -31 -4 -69 0 -120 13 -41 11 -77 18 -79 16 -6 -6 50 -63
74 -77 58 -32 239 -24 303 13 18 11 39 20 47 20 26 0 170 -194 235 -317 18
-34 43 -69 56 -78 34 -22 64 -57 64 -73 0 -8 15 -31 34 -52 18 -20 59 -86 91
-146 32 -60 101 -183 153 -274 106 -182 200 -375 285 -580 78 -190 86 -251 23
-184 -19 21 -30 25 -50 20 -33 -8 -67 -62 -64 -100 3 -30 6 -32 70 -59 56 -25
180 -148 215 -214 46 -88 102 -274 227 -748 113 -432 164 -685 221 -1100 45
-330 74 -519 86 -570 14 -58 40 -115 50 -109 5 3 9 39 9 80 0 49 7 94 20 131
24 68 23 63 6 63 -7 0 -21 -10 -29 -23 -14 -19 -18 -20 -26 -7 -19 27 -12 66
19 111 38 57 40 78 3 54 -25 -17 -27 -17 -40 1 -7 10 -13 30 -13 46 0 24 7 31
40 44 55 22 53 44 -4 44 -65 0 -71 44 -12 99 34 32 33 41 -8 41 -39 0 -69 26
-45 41 8 5 23 9 35 9 11 0 29 7 40 15 16 13 17 16 4 25 -8 5 -24 10 -36 10
-27 0 -54 30 -54 59 0 13 15 38 33 56 l34 34 -39 6 c-66 12 -71 52 -14 113
l31 33 -45 -3 c-39 -3 -45 0 -48 18 -2 14 9 32 32 52 20 17 36 34 36 37 0 3
-15 5 -33 5 -21 0 -41 8 -51 19 -20 22 -13 43 36 99 36 42 28 57 -19 37 -49
-21 -53 -20 -53 19 0 27 7 41 36 64 46 38 41 57 -17 57 -55 0 -62 21 -25 74
25 36 35 81 17 81 -4 0 -20 -9 -35 -21 -15 -12 -34 -18 -43 -15 -24 9 -9 80
26 124 50 64 49 113 -1 78 -27 -19 -67 -21 -73 -3 -3 7 4 30 15 52 11 21 20
47 20 57 0 23 -16 32 -24 13 -13 -35 -65 -3 -66 41 0 11 13 38 30 60 35 46 38
79 9 94 -17 10 -21 8 -26 -9 -6 -23 -29 -35 -39 -20 -3 6 -3 44 1 85 l7 74
-32 12 -32 11 6 63 c6 58 4 65 -18 87 -27 27 -76 169 -76 220 0 18 7 43 17 56
16 24 16 24 -11 17 -57 -14 -72 28 -31 88 26 38 26 39 -28 50 -46 11 -69 59
-63 133 l5 62 -26 -2 c-23 -2 -28 3 -36 36 -5 20 -18 42 -29 48 -17 9 -18 17
-12 65 6 50 5 54 -15 54 -31 0 -61 66 -61 137 0 46 -5 65 -27 97 -25 35 -28
47 -26 110 l3 71 -20 -33 c-23 -38 -29 -39 -58 -12 -30 28 -36 59 -28 141 4
38 5 69 3 69 -3 0 -14 -16 -26 -35 -45 -77 -86 -19 -79 116 4 87 4 88 -13 60
-10 -16 -22 -31 -27 -35 -16 -10 -40 27 -56 84 -21 80 -25 88 -48 92 -28 4
-60 67 -66 129 -5 52 -12 59 -32 34 -7 -8 -18 -15 -24 -15 -15 0 -46 63 -46
94 0 25 -22 51 -33 39 -12 -11 -56 39 -73 83 -10 26 -14 54 -10 69 6 25 5 26
-26 23 l-33 -3 2 78 c1 42 -3 77 -8 77 -5 0 -9 -5 -9 -10 0 -6 -11 -16 -25
-22 -21 -9 -28 -8 -46 8 -18 16 -20 27 -16 67 6 46 6 47 -22 47 -34 0 -61 28
-61 62 0 39 -10 58 -31 58 -14 0 -19 7 -19 26 0 23 -3 25 -22 19 -62 -19 -67
-18 -74 10 -10 41 10 75 45 75 16 0 34 7 41 15 22 26 47 17 67 -22 14 -29 26
-39 52 -44 41 -8 51 -22 51 -72 0 -35 1 -37 16 -23 37 38 89 9 123 -68 14 -33
30 -50 58 -63 29 -14 37 -24 36 -41 -2 -16 4 -23 22 -28 110 -27 595 -790 915
-1439 176 -358 355 -776 348 -813 -3 -14 -16 -17 -72 -17 -84 0 -95 -15 -34
-46 54 -27 53 -26 39 -42 -17 -22 -5 -42 55 -88 30 -23 54 -45 54 -50 0 -5
-15 -9 -34 -9 -39 0 -62 -20 -44 -38 7 -7 20 -12 30 -12 10 0 32 -13 50 -30
l33 -29 -47 -1 c-60 0 -64 -21 -10 -49 20 -11 48 -30 62 -41 l25 -21 -40 6
c-22 3 -51 9 -65 11 -19 4 -6 -13 58 -73 45 -43 82 -81 82 -85 0 -4 -25 -4
-57 -1 -68 7 -66 -8 6 -39 72 -32 103 -57 99 -82 -2 -16 -12 -22 -42 -26 l-40
-5 42 -28 c47 -31 49 -35 25 -53 -17 -12 -16 -15 13 -46 36 -37 54 -69 54 -93
0 -12 -8 -15 -37 -13 -53 4 -52 -25 2 -55 41 -23 71 -68 59 -88 -4 -7 -21 -9
-40 -6 -19 3 -34 4 -34 2 0 -3 9 -19 20 -37 11 -18 20 -45 20 -59 0 -15 13
-52 29 -82 l29 -55 -28 16 c-47 27 -48 19 -8 -146 6 -23 28 -67 50 -97 43 -61
77 -130 78 -158 0 -13 -16 -2 -55 39 -86 91 -85 59 1 -58 42 -58 60 -107 52
-145 -3 -12 -14 1 -36 45 -18 34 -37 62 -42 62 -14 0 -15 2 46 -152 38 -96 58
-160 61 -202 8 -93 22 -103 23 -16 0 152 -48 724 -75 881 -59 355 -91 523
-120 641 -43 172 -187 666 -225 773 -89 252 -214 553 -301 728 -156 310 -488
887 -631 1094 -70 103 -328 422 -378 468 -42 40 -63 81 -55 112 5 21 3 24 -14
18 -26 -8 -60 10 -165 90 -87 65 -179 119 -189 109 -2 -3 -1 -23 4 -45 11 -48
6 -59 -26 -59 -31 0 -52 -22 -60 -62 -4 -18 -14 -45 -21 -60 -13 -25 -12 -32
5 -65 11 -21 38 -60 60 -88 22 -27 38 -51 36 -54 -8 -7 -93 65 -135 115 -54
65 -52 78 44 279 l77 159 97 -97 c54 -53 105 -97 114 -97 10 0 27 13 39 30 27
35 39 31 39 -15 0 -30 6 -38 43 -61 23 -14 63 -49 90 -78 l47 -51 -21 60 c-27
74 -82 170 -146 253 -111 147 -142 204 -122 229 11 12 65 23 279 53 350 49
491 62 757 69 149 3 275 10 280 15 12 12 -95 105 -156 133 -52 25 -60 26 -180
20 -69 -3 -135 -2 -146 2 -19 8 -19 8 0 18 35 19 124 33 203 33 85 0 89 -1
231 -89 76 -46 90 -51 143 -51 64 0 195 44 242 81 24 19 26 27 26 97 0 82 14
152 31 152 18 0 41 -74 46 -150 l6 -76 -60 -69 c-33 -39 -62 -77 -65 -86 -5
-13 -28 -17 -122 -21 -119 -5 -144 -12 -113 -29 19 -11 21 -27 8 -48 -8 -12
-15 -11 -50 3 -46 18 -293 24 -276 7 22 -22 282 -134 335 -144 31 -7 55 -17
53 -22 -2 -6 15 -34 36 -63 22 -28 70 -107 107 -174 106 -194 185 -324 370
-606 189 -289 256 -408 279 -501 15 -55 15 -75 1 -208 -9 -82 -32 -244 -51
-362 -43 -266 -60 -421 -80 -726 -23 -364 -35 -878 -35 -1515 0 -316 -5 -633
-10 -705 -10 -137 -7 -150 34 -136 33 12 82 103 130 245 76 226 205 569 217
580 9 8 10 7 6 -7 -30 -83 -45 -1044 -19 -1120 16 -43 21 -45 49 -15 81 89
188 411 313 943 45 193 100 415 122 495 22 80 46 179 52 220 7 41 32 147 55
235 23 88 78 338 122 555 44 217 99 490 123 606 24 116 48 260 54 320 12 119
64 367 89 427 9 20 22 37 30 37 50 0 138 287 224 725 16 83 32 179 35 215 7
73 18 100 39 100 15 0 363 -159 520 -237 49 -25 155 -81 234 -126 80 -44 163
-86 185 -92 23 -7 88 -34 146 -60 153 -69 210 -72 176 -8 -23 44 -82 104 -191
194 -55 46 -176 152 -270 235 -93 83 -259 221 -368 308 -109 87 -224 182 -255
212 l-57 54 60 -26 c244 -107 366 -157 470 -194 66 -23 219 -89 340 -147 832
-399 1003 -476 1043 -471 24 3 27 7 25 36 -2 59 -171 293 -286 398 -58 53
-127 102 -127 91 0 -3 41 -51 91 -108 188 -215 169 -217 -239 -27 -130 61
-291 134 -357 163 -66 29 -170 80 -231 113 -117 63 -260 129 -569 262 -104 46
-247 111 -317 146 -70 35 -136 64 -145 64 -10 0 -67 21 -128 46 -60 25 -191
72 -290 106 -99 33 -351 134 -561 223 -390 167 -469 203 -462 211 6 5 123 -38
483 -179 342 -133 574 -220 647 -241 77 -22 285 -111 574 -246 131 -62 320
-145 419 -185 99 -40 284 -124 410 -187 433 -217 642 -310 725 -323 l45 -7
-81 84 c-45 45 -96 106 -115 133 -46 69 -165 201 -348 388 -144 146 -186 182
-162 140 20 -36 146 -187 267 -319 109 -119 136 -154 120 -154 -10 0 -184 64
-208 76 -36 19 -35 27 7 47 19 9 35 21 35 26 0 18 -118 158 -175 207 -31 27
-84 87 -117 133 -64 87 -230 261 -270 282 l-23 12 21 -24 c43 -49 36 -52 -25
-9 -78 55 -118 99 -169 187 -27 46 -78 106 -152 178 -61 61 -118 123 -126 138
-8 16 -22 65 -29 110 -8 45 -22 104 -31 132 -92 276 -394 696 -822 1140 -179
185 -404 399 -524 498 -54 44 -98 83 -98 87 0 4 7 13 15 20 8 7 12 16 9 21 -2
5 -78 8 -167 8 -177 -1 -262 14 -304 53 -20 19 -27 20 -62 10 -121 -37 -317
17 -390 108 -24 30 -39 39 -86 48 -31 7 -84 24 -116 38 -33 15 -62 24 -65 21
-4 -4 45 -43 122 -94 16 -11 13 -12 -21 -7 -85 13 -320 119 -433 195 -51 35
-122 99 -122 110 0 5 20 -1 45 -12 50 -22 65 -19 65 15 0 32 -19 46 -61 46
-23 0 -69 16 -127 45 -50 25 -99 45 -109 45 -51 0 -296 144 -358 210 -30 32
-30 32 -5 25 14 -4 52 -21 85 -38 66 -33 116 -38 180 -16 32 11 40 19 40 39 0
21 -5 24 -38 27 -22 1 -71 20 -115 43 l-77 41 64 -65 c105 -106 67 -103 -119
8 -68 41 -126 73 -128 71 -2 -2 8 -20 23 -40 15 -19 25 -38 22 -41 -12 -12
-150 75 -227 144 -36 32 -43 43 -32 53 24 26 14 39 -32 39 -25 0 -81 13 -126
30 -101 37 -113 38 -70 1 19 -16 32 -32 28 -37 -5 -4 -45 3 -90 16 -116 32
-143 36 -133 20 16 -26 -50 -2 -141 51 -113 65 -414 222 -414 216 0 -3 36 -35
80 -72 44 -37 80 -71 80 -76 0 -16 -128 56 -225 127 -108 78 -201 127 -280
148 -32 8 -65 22 -74 31 -15 15 -15 16 2 9 28 -10 19 10 -23 51 -22 21 -40 34
-40 28 0 -7 4 -15 10 -18 5 -3 15 -15 20 -26 9 -15 7 -19 -7 -19 -10 0 -84 67
-166 152 -146 150 -148 153 -120 160 15 3 129 18 253 32 237 28 252 28 380
-10 42 -12 97 -15 235 -15 157 1 193 -2 280 -23 138 -33 152 -35 306 -45 95
-6 146 -14 170 -26 21 -11 53 -17 89 -16 36 1 63 -4 76 -14 17 -14 15 -14 -26
-9 -40 6 -43 5 -30 -9 29 -29 557 -172 599 -162 29 7 81 52 81 71 0 6 -7 17
-16 25 -13 11 -14 9 -8 -16 l7 -28 -77 7 c-144 13 -362 101 -423 170 -17 20
-39 36 -48 36 -9 0 -13 5 -10 10 3 6 18 10 33 10 15 0 39 8 52 17 19 13 49 18
125 20 85 2 94 1 63 -8 -37 -11 -52 -29 -25 -29 19 0 47 -33 47 -54 0 -15 -5
-16 -32 -10 -28 6 -31 4 -21 -8 19 -22 119 -68 145 -67 17 1 18 3 6 6 -10 2
-18 13 -18 24 0 14 -7 19 -25 19 -15 0 -28 7 -32 16 -11 29 25 44 101 44 125
1 265 17 291 34 32 21 38 20 26 -3 -16 -29 -57 -41 -196 -54 l-130 -12 90 -29
c50 -16 137 -37 195 -48 107 -19 312 -29 326 -15 4 4 -15 29 -42 55 -27 26
-58 63 -69 82 -18 31 -26 36 -75 41 -69 8 -118 25 -288 101 -101 44 -152 61
-202 67 -55 6 -79 14 -131 49 -81 52 -129 69 -221 77 -40 3 -139 13 -220 22
l-148 17 -97 -37 c-92 -34 -183 -60 -183 -51 0 2 33 20 74 39 87 41 136 90
113 112 -9 9 -28 13 -48 11 l-34 -4 28 -12 c39 -17 33 -30 -18 -37 -36 -6 -49
-3 -71 14 -15 12 -39 21 -53 21 -15 0 -36 6 -47 14 -18 14 -18 15 -1 21 10 4
32 5 49 1 43 -9 26 6 -25 22 -120 36 -304 24 -511 -34 -82 -23 -141 -34 -187
-34 -109 0 -253 -48 -419 -141 -42 -23 -93 -25 -111 -3 -7 8 -29 24 -49 34
-58 30 -115 101 -169 212 -116 242 -192 581 -177 798 9 121 14 140 37 140 12
0 19 7 19 20 0 11 7 20 15 20 19 0 19 3 -5 42 -11 18 -17 41 -14 54 3 11 -2
38 -10 59 -20 46 -20 45 0 45 8 0 25 5 36 11 21 11 21 12 4 25 -11 8 -30 11
-49 7 -49 -10 -25 12 65 59 46 23 83 50 86 60 2 11 21 23 46 30 54 15 66 26
44 42 -25 18 -22 24 10 28 23 3 28 8 32 44 4 25 19 57 38 81 18 23 32 48 32
57 0 8 27 38 61 66 45 37 68 50 92 50 48 0 219 -46 289 -78 l63 -28 -45 -16
-45 -16 48 -1 c54 -1 111 -22 144 -53 13 -12 23 -17 23 -11 0 18 -130 123
-192 154 -119 60 -297 98 -708 150 -423 54 -573 66 -710 59 -19 -1 -48 1 -65
4 -19 4 -50 -1 -85 -14z m190 -50 c0 -10 -52 -40 -70 -40 -23 0 -8 19 28 33
45 19 42 19 42 7z m320 -64 c-8 -8 -103 -61 -210 -118 -107 -57 -207 -112
-222 -122 -41 -27 -37 1 5 41 80 76 345 210 422 212 17 1 17 -1 5 -13z m-888
-88 c-118 -144 -216 -251 -220 -240 -2 6 10 31 26 54 16 24 41 66 55 93 23 47
43 65 152 143 52 37 48 24 -13 -50z m436 49 c4 -18 -51 -57 -80 -57 -27 0 -22
15 18 49 37 33 57 36 62 8z m142 15 c0 -23 -176 -169 -188 -157 -8 7 73 90
128 131 46 34 60 40 60 26z m-525 -118 c-55 -53 -108 -100 -119 -106 -32 -17
23 69 69 109 37 32 133 93 145 92 3 0 -40 -43 -95 -95z m-185 61 c0 -19 -196
-235 -214 -235 -5 0 -2 8 6 18 28 32 30 52 5 52 -19 1 -16 6 23 40 97 86 180
144 180 125z m295 -81 c-113 -107 -151 -137 -167 -132 -17 6 89 116 165 174
99 74 100 50 2 -42z m925 58 c0 -5 -9 -17 -19 -26 -23 -21 -356 -166 -379
-166 -30 1 26 39 143 98 178 89 255 118 255 94z m-230 -11 c0 -22 -94 -71
-135 -71 -53 0 -11 41 67 65 52 17 68 18 68 6z m-540 -56 c-18 -19 -36 -32
-39 -29 -6 6 54 64 66 64 4 0 -8 -16 -27 -35z m-640 20 c0 -2 -11 -12 -25 -21
-30 -19 -58 -8 -30 13 18 12 55 18 55 8z m561 -44 c-17 -30 -41 -45 -53 -33
-7 7 -3 18 16 37 28 28 53 26 37 -4z m796 -67 c7 -20 -56 -56 -105 -62 -26 -3
-89 -24 -142 -47 -92 -41 -123 -49 -85 -22 35 26 196 109 248 128 56 20 78 21
84 3z m-739 -29 c-3 -3 -45 -16 -93 -29 -64 -17 -83 -20 -72 -9 21 21 86 42
131 43 22 0 37 -2 34 -5z m-451 -137 c-44 -150 -63 -184 -53 -97 11 104 58
229 86 229 4 0 -11 -60 -33 -132z m1283 104 c-66 -49 -104 -72 -117 -72 -40 0
16 54 83 79 56 22 69 19 34 -7z m-1404 -23 c-7 -34 -42 -89 -57 -89 -14 0 -2
38 27 83 29 45 39 47 30 6z m206 -65 c-16 -38 -36 -83 -45 -99 l-16 -30 -1 38
c0 21 7 52 17 70 17 35 65 98 70 93 2 -2 -10 -34 -25 -72z m316 33 c15 -17 20
-91 7 -96 -12 -6 -77 88 -69 100 8 14 50 11 62 -4z m-848 -3 c0 -8 -139 -70
-175 -78 -53 -13 -13 13 76 50 86 34 99 38 99 28z m109 -78 c21 -112 26 -106
-92 -99 l-104 6 -22 -32 c-20 -27 -28 -31 -69 -31 -26 0 -54 5 -62 10 -17 10
1 19 155 75 202 73 202 104 0 36 -65 -23 -120 -39 -123 -37 -8 9 203 114 278
139 22 7 27 -2 39 -67z m1421 49 c24 -14 24 -14 -22 -15 -53 0 -80 8 -72 21 8
14 66 10 94 -6z m-891 -39 c-12 -33 -8 -62 17 -124 10 -22 -24 -2 -42 25 -22
35 -21 65 6 108 27 44 37 39 19 -9z m449 9 c3 -36 -24 -108 -38 -100 -11 7
-14 118 -3 129 16 15 38 -1 41 -29z m-883 -10 c0 -23 -4 -30 -20 -30 -21 0
-31 25 -21 51 11 28 41 12 41 -21z m1557 15 c-28 -23 -158 -67 -169 -57 -13
13 21 35 87 55 36 11 74 20 85 21 19 0 19 -1 -3 -19z m-2132 -90 c11 -7 7 -10
-18 -10 -20 0 -31 4 -27 10 8 13 26 13 45 0z m585 -19 c3 -11 28 -50 55 -88
28 -37 50 -71 50 -75 0 -18 -23 -5 -64 36 -53 52 -79 100 -71 126 8 25 22 25
30 1z m-777 -48 c-4 -22 -38 -30 -38 -10 0 14 13 24 33 26 5 1 7 -7 5 -16z
m222 11 c0 -12 -73 -34 -116 -34 -58 0 -52 9 18 26 58 13 98 17 98 8z m496
-35 c14 -15 12 -17 -23 -22 -40 -7 -138 5 -150 17 -16 16 26 27 89 24 45 -3
73 -9 84 -19z m1150 4 c33 -14 36 -18 17 -21 -12 -2 -35 4 -52 13 -57 29 -28
36 35 8z m-335 -13 c-12 -11 -28 -17 -34 -13 -12 8 20 33 42 33 12 -1 10 -6
-8 -20z m190 -11 c11 -11 18 -23 16 -26 -7 -6 -67 29 -67 39 0 15 30 8 51 -13z
m385 -41 c98 -102 137 -177 100 -191 -16 -7 -36 11 -36 33 0 8 -32 59 -70 112
-39 53 -70 100 -70 103 0 12 37 -15 76 -57z m-666 22 c0 -5 -11 -10 -25 -10
-14 0 -25 5 -25 10 0 6 11 10 25 10 14 0 25 -4 25 -10z m598 -94 c84 -122 101
-167 40 -109 -25 24 -31 26 -49 15 -25 -16 -39 -8 -39 23 0 27 -44 84 -56 72
-4 -4 2 -28 14 -53 l23 -46 -30 22 c-17 11 -33 26 -37 32 -13 21 -90 48 -141
48 -51 0 -74 13 -56 31 6 6 50 6 120 -2 60 -7 122 -9 137 -5 l27 7 -22 37
c-22 36 -22 37 -1 18 11 -10 43 -50 70 -90z m-390 71 c2 -10 -3 -17 -12 -17
-21 0 -20 -6 5 -41 11 -16 17 -29 12 -29 -12 0 -83 49 -83 57 0 4 10 17 22 30
25 27 51 27 56 0z m-674 -90 c29 -38 118 -218 111 -225 -7 -8 -45 42 -103 136
-57 93 -68 122 -57 149 6 16 8 15 16 -5 5 -13 20 -37 33 -55z m76 22 c0 -10
-4 -19 -9 -19 -14 0 -33 28 -27 39 10 16 36 1 36 -20z m1215 -29 c7 -24 6 -24
-25 6 -20 19 -30 37 -25 44 10 16 40 -15 50 -50z m-764 -27 c44 -42 79 -81 79
-86 0 -6 -25 14 -55 42 -30 29 -75 61 -100 72 -44 19 -52 29 -38 42 16 17 41
2 114 -70z m222 -147 c34 -49 97 -137 141 -195 43 -57 85 -120 93 -139 21 -51
43 -522 24 -522 -11 0 -46 128 -66 244 -17 101 -20 222 -5 231 17 11 -35 95
-217 353 -95 134 -173 247 -173 250 0 18 149 -145 203 -222z m-391 187 c26
-31 30 -43 14 -43 -18 0 -56 34 -56 50 0 16 26 12 42 -7z m-94 -21 c2 -11 -2
-31 -9 -44 l-12 -23 -8 27 c-9 34 -1 70 15 65 6 -2 12 -13 14 -25z m-68 -12
c1 -8 2 -35 1 -60 -1 -33 -4 -41 -11 -30 -13 21 -24 96 -15 110 8 13 22 2 25
-20z m677 -52 c104 -100 270 -284 300 -335 22 -37 26 -61 34 -190 16 -243 51
-432 121 -653 52 -163 101 -258 163 -316 52 -48 70 -84 43 -84 -23 0 -107 103
-157 193 -62 114 -133 282 -166 396 -42 143 -57 254 -60 449 l-4 183 -88 95
c-48 52 -124 135 -169 185 -139 157 -149 201 -17 77z m-557 23 c12 -24 13 -61
1 -61 -8 0 -31 52 -31 71 0 16 19 9 30 -10z m200 -53 c56 -70 72 -103 68 -141
-3 -30 -5 -28 -42 42 -21 41 -49 92 -62 113 -35 55 -11 46 36 -14z m-313 -58
c27 0 1 -166 -40 -261 -15 -33 -15 -29 -16 93 -1 100 -5 139 -20 178 l-19 50
41 -30 c22 -16 47 -30 54 -30z m276 -57 c27 -114 29 -133 18 -133 -5 0 -20 33
-31 73 -12 39 -25 85 -31 101 -5 16 -9 38 -9 50 1 42 37 -19 53 -91z m358 50
c72 -74 155 -176 174 -214 30 -56 -5 -28 -72 59 -37 48 -86 106 -109 128 -43
43 -71 84 -57 84 5 0 34 -26 64 -57z m-181 -31 c0 -21 -26 2 -33 29 -5 20 -5
20 14 3 10 -9 19 -24 19 -32z m-300 19 c0 -11 -4 -23 -10 -26 -6 -4 -10 5 -10
19 0 14 5 26 10 26 6 0 10 -9 10 -19z m783 -39 c25 -28 49 -90 36 -97 -15 -10
-40 15 -60 60 -24 53 -10 75 24 37z m91 -8 c3 -9 6 -23 6 -31 0 -13 -3 -13
-15 -3 -16 13 -21 50 -6 50 5 0 12 -7 15 -16z m-1384 -29 c118 -31 144 -41
134 -57 -5 -7 -51 -9 -148 -5 -130 5 -138 4 -101 -9 36 -13 24 -14 -142 -9
-104 3 -183 2 -183 -3 0 -5 39 -17 88 -26 112 -23 154 -36 92 -30 -167 17
-365 33 -367 30 -2 -2 29 -12 69 -21 148 -36 121 -45 -58 -20 -114 16 -176 30
-208 47 -27 15 -3 27 37 19 23 -5 36 -2 48 10 21 21 96 43 269 80 172 37 307
35 470 -6z m440 -2 c0 -10 -11 -56 -24 -104 -13 -47 -27 -117 -31 -156 -11
-113 -51 -145 -49 -39 2 59 35 198 66 268 21 49 38 63 38 31z m-183 -55 c-5
-62 -15 -97 -39 -130 -10 -14 -9 -27 5 -65 39 -108 14 -110 -42 -3 -46 88 -55
97 -77 79 -20 -16 -34 3 -34 45 l0 28 56 -4 c45 -4 57 -2 62 11 3 9 13 21 23
28 9 7 19 26 22 43 4 16 12 30 18 30 8 0 10 -19 6 -62z m288 16 c16 -34 14
-58 -4 -38 -13 15 -31 74 -22 74 5 0 16 -16 26 -36z m390 -128 c41 -78 41
-113 -1 -61 -30 37 -84 149 -84 173 1 26 37 -22 85 -112z m-437 24 c4 -63 -21
-140 -45 -140 -13 0 -15 10 -10 68 11 128 49 177 55 72z m937 -90 c29 -209 81
-392 147 -525 17 -33 73 -122 124 -197 92 -135 104 -158 84 -158 -14 0 -114
124 -176 220 -165 253 -162 245 -189 455 -13 101 -21 360 -10 330 2 -5 11 -62
20 -125z m-1475 90 c0 -14 -39 -32 -52 -24 -7 5 -5 11 7 21 22 15 45 17 45 3z
m745 -40 c15 -29 25 -66 25 -91 0 -59 -38 -194 -60 -214 -17 -15 -18 -15 -25
15 -7 33 2 104 17 133 5 9 15 17 24 17 8 0 17 6 20 14 4 11 -11 85 -32 159
-10 33 6 17 31 -33z m-930 0 c4 -6 -8 -10 -30 -10 -22 0 -34 4 -30 10 3 6 17
10 30 10 13 0 27 -4 30 -10z m796 -52 c-7 -24 -27 -70 -44 -103 -28 -52 -32
-56 -35 -34 -3 29 31 141 55 178 24 37 39 12 24 -41z m-690 32 c23 -19 23 -19
3 -20 -11 0 -29 9 -39 20 -15 17 -16 20 -3 20 9 0 26 -9 39 -20z m940 -58 c22
-50 23 -56 9 -47 -12 8 -45 71 -54 105 -7 24 -7 25 9 5 10 -11 26 -39 36 -63z
m434 -164 c20 -246 34 -331 81 -485 20 -65 40 -130 44 -145 15 -50 -7 -29 -34
32 -58 130 -106 308 -125 465 -12 100 -15 333 -4 361 13 33 21 -20 38 -228z
m-655 48 c-23 -69 -49 -133 -57 -143 -13 -16 -14 -14 -9 28 7 65 61 227 83
251 32 35 27 -2 -17 -136z m432 -20 c-1 -64 4 -228 13 -364 16 -265 19 -379 9
-369 -8 7 -48 264 -64 406 -17 149 -14 371 4 416 9 21 21 35 28 32 10 -3 12
-34 10 -121z m-142 64 c0 -16 -4 -30 -10 -30 -11 0 -14 43 -3 53 11 12 13 8
13 -23z m-114 -89 c-15 -149 -38 -316 -48 -340 l-10 -26 -10 25 c-17 43 13
318 43 397 17 46 31 14 25 -56z m-651 17 c-4 -13 -14 -34 -24 -48 l-16 -25 -3
27 c-4 33 13 68 34 68 11 0 14 -6 9 -22z m721 -23 c3 -13 1 -154 -5 -312 -6
-158 -11 -308 -12 -333 -1 -44 -1 -44 -11 -15 -13 36 -17 592 -5 648 9 42 24
48 33 12z m-652 -71 c-1 -46 -42 -146 -58 -141 -29 9 -13 138 20 172 25 24 39
12 38 -31z m86 17 c0 -11 -4 -23 -10 -26 -6 -4 -10 5 -10 19 0 14 5 26 10 26
6 0 10 -9 10 -19z m347 -215 c4 -74 2 -108 -4 -101 -26 26 -42 174 -26 234 l6
25 9 -24 c5 -13 11 -73 15 -134z m-197 109 c0 -14 -4 -25 -10 -25 -5 0 -10 11
-10 25 0 14 5 25 10 25 6 0 10 -11 10 -25z m-150 -8 c0 -7 -14 -35 -31 -61
-35 -56 -48 -88 -83 -206 -14 -47 -32 -94 -40 -105 -15 -19 -15 -18 -16 21 0
63 87 297 131 350 14 18 39 18 39 1z m650 -199 c31 -240 44 -430 33 -463 -10
-30 -10 -30 -21 22 -16 73 -48 602 -36 590 3 -3 14 -70 24 -149z m-612 85
c-17 -65 -122 -326 -126 -315 -9 28 109 352 128 352 5 0 4 -17 -2 -37z m212
-36 c0 -24 -3 -27 -14 -18 -15 13 -27 61 -19 75 10 15 33 -26 33 -57z m-530
44 c0 -5 -9 -19 -20 -32 -21 -26 -27 -11 -10 22 11 19 30 26 30 10z m70 -68
c0 -19 -3 -24 -10 -17 -6 6 -8 18 -4 27 9 24 14 21 14 -10z m2910 -23 c0 -7
-110 -39 -186 -55 -20 -4 -46 0 -68 9 -46 19 -46 30 -1 22 24 -5 42 -2 61 10
39 26 194 37 194 14z m-2606 1 c6 -10 -61 -220 -75 -235 -15 -16 -10 30 11
115 29 114 47 148 64 120z m86 -35 c0 -30 -36 -143 -56 -176 -14 -24 -15 -22
-11 35 5 88 67 218 67 141z m736 -101 c33 -68 60 -172 48 -184 -10 -10 -43 42
-75 119 -37 87 -50 136 -42 158 8 20 25 -3 69 -93z m1419 5 c3 -5 -14 -22 -37
-37 -24 -15 -56 -38 -71 -50 -17 -14 -37 -21 -50 -19 -12 3 -35 8 -52 11 l-30
6 34 -35 35 -36 -33 0 c-18 0 -69 10 -114 21 -45 12 -127 24 -182 28 l-100 6
41 28 c45 31 142 67 176 67 l23 -1 -23 -19 -23 -19 55 -16 c52 -15 56 -15 95
4 37 19 153 54 211 64 14 2 28 5 32 6 4 0 9 -3 13 -9z m285 1 c0 -15 -23 -29
-79 -45 -76 -22 -91 -21 -65 5 34 34 144 65 144 40z m-1277 -104 c47 -77 54
-104 34 -124 -14 -15 -16 -13 -23 13 -4 16 -15 39 -26 50 -17 19 -59 134 -57
159 0 12 22 -18 72 -98z m-1113 73 c0 -16 -33 -80 -42 -80 -14 0 -9 44 8 68
16 23 34 29 34 12z m2205 -52 c14 -6 25 -14 25 -18 0 -12 -66 -21 -97 -15 -54
12 -56 14 -43 30 15 18 79 20 115 3z m262 -8 c14 -11 47 -23 74 -26 27 -4 57
-13 66 -20 17 -13 17 -15 -1 -29 -25 -19 -64 -19 -111 1 -20 8 -49 13 -64 11
-26 -4 -25 -4 6 -12 36 -8 58 -29 49 -44 -12 -19 -75 -24 -99 -9 -22 15 -139
48 -170 48 -9 0 -17 4 -17 8 0 9 92 66 130 81 44 17 110 13 137 -9z m236 -7
c10 -10 -13 -33 -34 -33 -21 0 -33 15 -24 30 7 11 48 14 58 3z m290 -39 c-40
-19 -73 -39 -73 -45 0 -11 41 -29 52 -23 4 3 4 12 1 21 -6 14 3 15 88 9 52 -4
159 -11 237 -16 79 -4 149 -13 155 -19 24 -24 -158 -69 -238 -58 -38 6 -42 4
-38 -12 7 -28 -13 -34 -49 -15 -18 10 -45 17 -59 16 -15 -1 -43 5 -63 13 -39
17 -45 12 -19 -17 29 -32 3 -37 -117 -21 -124 16 -167 33 -83 33 54 0 113 16
113 31 0 14 -47 29 -91 29 -32 0 -39 3 -37 18 3 18 -10 20 -58 8 -46 -12 -21
18 27 31 42 12 262 49 304 52 11 0 -13 -15 -52 -35z m-1525 4 c16 -16 15 -63
-1 -77 -16 -13 -27 -5 -27 19 0 12 -11 19 -39 24 -38 6 -67 27 -54 39 11 12
108 8 121 -5z m2142 -48 c0 -11 -33 -30 -52 -30 -7 1 -3 9 11 20 25 22 41 26
41 10z m-3990 -7 c0 -5 -9 -19 -20 -33 -18 -23 -20 -24 -20 -4 0 20 17 44 32
44 4 0 8 -3 8 -7z m1295 -174 c70 -165 105 -254 105 -266 0 -2 -5 -1 -10 2
-24 15 -137 271 -173 393 -31 105 3 48 78 -129z m449 145 c4 -9 4 -19 2 -22
-10 -9 -36 8 -36 23 0 20 26 19 34 -1z m-656 -43 c27 -48 29 -75 2 -41 -22 29
-43 80 -31 80 4 0 17 -17 29 -39z m-716 -33 c-10 -22 -11 -21 -11 12 -1 26 2
31 11 22 8 -8 8 -17 0 -34z m-72 -4 c0 -21 -4 -33 -10 -29 -17 10 -11 65 7 65
2 0 3 -16 3 -36z m1358 -69 c88 -88 114 -128 60 -93 -31 20 -157 147 -169 170
-23 42 19 13 109 -77z m-297 28 c5 -14 7 -28 4 -31 -8 -8 -34 30 -35 51 0 24
19 12 31 -20z m-1186 -59 c-9 -51 -23 -84 -34 -84 -6 0 -9 6 -7 13 2 6 10 33
16 60 15 55 36 65 25 11z m365 -5 c7 -11 9 -27 6 -36 -9 -22 -36 3 -36 33 0
30 16 31 30 3z m3237 -60 c54 -26 55 -40 2 -28 -49 11 -79 26 -79 39 0 16 31
11 77 -11z m-2275 -52 c24 -34 16 -47 -13 -21 -20 18 -49 65 -49 80 0 10 39
-27 62 -59z m-271 11 c6 -12 22 -64 35 -116 13 -52 30 -102 39 -112 18 -20 20
-53 3 -48 -39 13 -86 130 -95 236 -6 65 -1 76 18 40z m-449 -80 c-9 -30 -10
-27 -10 32 0 59 1 62 10 33 8 -23 8 -43 0 -65z m-302 7 c0 -19 -4 -35 -10 -35
-5 0 -10 16 -10 35 0 19 5 35 10 35 6 0 10 -16 10 -35z m1388 -86 c78 -92 142
-186 142 -208 -1 -24 -162 148 -199 212 -60 104 -33 103 57 -4z m136 30 c55
-50 74 -79 39 -60 -38 20 -128 110 -111 111 9 0 42 -23 72 -51z m-861 -16 c23
-53 47 -126 47 -145 0 -5 -4 -8 -9 -8 -8 0 -50 105 -75 188 -15 45 12 20 37
-35z m717 -151 c56 -84 100 -155 97 -158 -12 -13 -169 201 -216 293 -53 107
-9 56 119 -135z m-253 156 c25 -24 31 -58 9 -58 -18 0 -33 19 -41 53 -9 33 1
34 32 5z m-897 -38 c0 -16 -4 -30 -10 -30 -5 0 -10 14 -10 30 0 17 5 30 10 30
6 0 10 -13 10 -30z m828 -21 c81 -109 78 -106 96 -84 l16 20 16 -20 c8 -11 29
-42 45 -69 39 -62 47 -54 14 15 -26 56 -31 79 -17 79 13 0 36 -29 71 -93 41
-71 76 -98 171 -130 77 -26 96 -22 64 14 -17 18 -16 19 12 19 40 -1 110 -34
123 -58 6 -12 11 -36 11 -55 0 -60 96 -167 151 -167 13 0 51 -11 83 -25 33
-13 62 -23 64 -20 11 10 -60 115 -124 185 -84 91 -101 117 -85 133 16 16 13
27 -7 27 -37 0 -202 125 -202 152 0 18 38 6 88 -28 162 -109 382 -384 382
-479 0 -20 5 -25 25 -25 54 0 243 -227 322 -388 29 -57 38 -90 41 -141 5 -74
-5 -73 -32 1 -10 27 -25 52 -33 57 -9 4 -17 23 -18 41 -2 18 -13 42 -24 54
l-22 21 15 -37 c9 -21 12 -39 7 -43 -10 -6 -41 19 -155 123 -39 35 -85 70
-103 77 -47 20 -183 161 -190 197 -4 21 -25 43 -74 80 -82 61 -133 128 -133
175 0 27 -4 33 -21 33 -12 0 -49 10 -84 21 -54 19 -66 20 -88 8 -21 -11 -33
-10 -93 10 -37 13 -73 22 -79 20 -7 -3 -2 -23 13 -55 13 -28 27 -62 31 -75 14
-42 -22 -3 -61 68 -23 39 -60 85 -100 120 -37 33 -64 65 -64 76 0 24 -84 151
-112 172 -25 17 -36 12 -48 -21 -11 -28 -28 -31 -37 -7 -8 20 40 65 61 57 8
-3 17 0 21 6 11 18 27 7 63 -41z m-512 6 c15 -38 19 -125 5 -125 -15 0 -31 59
-31 111 0 27 2 49 6 49 3 0 12 -16 20 -35z m-186 -44 c0 -56 -15 -75 -30 -37
-10 27 4 86 21 86 5 0 9 -22 9 -49z m75 8 c0 -8 -10 -15 -22 -17 -25 -4 -30 7
-11 26 15 15 33 10 33 -9z m-335 -26 c-1 -31 -3 -35 -11 -20 -6 9 -7 26 -4 37
10 30 15 24 15 -17z m130 -27 c0 -14 -4 -28 -10 -31 -6 -4 -10 7 -10 24 0 17
5 31 10 31 6 0 10 -11 10 -24z m700 -62 c24 -71 34 -83 49 -57 16 29 24 7 9
-24 -17 -37 -37 -36 -60 4 -27 45 -60 142 -52 154 11 19 32 -11 54 -77z m-436
-4 c18 -45 21 -86 7 -95 -10 -6 -26 37 -37 98 -8 50 9 48 30 -3z m-259 -40
c17 -33 20 -80 5 -80 -15 0 -30 36 -30 74 0 44 5 45 25 6z m117 -12 c-10 -22
-11 -21 -11 12 -1 26 2 31 11 22 8 -8 8 -17 0 -34z m274 6 c10 -23 13 -47 8
-68 -6 -29 -8 -28 -25 34 -10 36 -18 66 -19 68 0 1 5 2 11 2 5 0 17 -16 25
-36z m81 -91 c-2 -16 -4 -5 -4 22 0 28 2 40 4 28 2 -13 2 -35 0 -50z m-605 -5
c2 -32 -3 -82 -8 -88 -3 -2 -9 2 -14 10 -11 17 -13 83 -3 93 13 13 23 7 25
-15z m837 -7 c12 -16 21 -42 21 -58 0 -16 7 -50 16 -76 9 -26 14 -52 11 -59
-6 -18 -44 47 -62 105 -34 114 -29 148 14 88z m-149 -46 c0 -14 -4 -25 -10
-25 -5 0 -10 11 -10 25 0 14 5 25 10 25 6 0 10 -11 10 -25z m1250 -26 c0 -15
-16 -11 -32 9 -31 35 -31 45 0 23 18 -12 32 -27 32 -32z m-1753 -7 c12 -47 7
-68 -13 -51 -15 12 -20 89 -5 89 5 0 13 -17 18 -38z m807 16 c38 -8 61 -18 63
-29 3 -8 20 -21 38 -28 51 -18 156 -138 206 -233 51 -98 62 -91 19 11 -17 40
-29 80 -27 89 3 12 7 9 16 -13 7 -16 23 -44 36 -61 27 -36 58 -124 53 -151
-11 -60 -91 23 -161 169 -23 48 -48 88 -54 88 -7 0 -13 -4 -13 -8 0 -25 38
-130 82 -227 55 -120 71 -165 59 -165 -11 0 -70 43 -161 118 -41 34 -78 62
-82 62 -16 0 -7 -38 33 -139 53 -138 48 -169 -10 -57 -71 137 -200 287 -256
297 -28 5 -77 108 -83 172 l-4 52 39 -60 c34 -50 116 -152 155 -190 10 -10 8
18 -9 115 l-6 35 30 -27 c16 -16 36 -28 45 -28 14 0 16 -7 11 -35 -3 -20 -2
-35 3 -34 24 4 40 -7 116 -78 81 -78 81 -78 74 -43 -11 60 -59 145 -81 145
-15 0 -27 18 -51 78 -40 97 -46 103 -111 134 -30 14 -56 29 -59 34 -8 13 6 31
19 25 7 -2 39 -10 71 -18z m598 -190 c146 -197 193 -266 185 -275 -23 -22
-189 172 -286 336 -47 78 -54 101 -30 101 5 0 64 -73 131 -162z m-1167 -25
c36 -142 42 -184 25 -167 -12 12 -80 277 -80 312 1 48 18 2 55 -145z m52 92
c13 -27 14 -38 5 -47 -18 -18 -42 9 -42 48 0 44 16 43 37 -1z m153 22 c0 -7
-6 -21 -13 -32 -18 -24 -32 -3 -17 25 12 23 30 27 30 7z m737 -22 c46 -57 163
-248 169 -275 3 -14 20 -73 39 -132 18 -60 30 -108 26 -108 -7 0 -42 63 -155
280 -113 215 -138 270 -121 270 8 0 27 -16 42 -35z m1351 14 c17 -6 33 -17 36
-25 7 -18 5 -18 -44 2 -22 9 -37 20 -34 25 6 11 5 11 42 -2z m-2014 -70 c-18
-20 -34 -17 -34 6 0 15 19 24 38 17 10 -3 9 -9 -4 -23z m-120 -67 c29 -92 51
-200 43 -209 -10 -10 -46 107 -82 270 -12 58 15 15 39 -61z m928 1 c59 -82 93
-142 85 -149 -8 -9 -147 199 -147 220 0 13 9 3 62 -71z m890 4 c91 -62 136
-103 125 -113 -10 -10 -104 57 -177 126 -74 70 -68 68 52 -13z m-2146 -8 c17
-50 29 -156 16 -144 -12 11 -52 143 -52 169 0 29 24 12 36 -25z m277 -34 c9
-27 19 -70 22 -95 6 -43 5 -44 -9 -20 -15 28 -46 137 -46 166 0 28 16 4 33
-51z m200 30 c-4 -27 0 -40 21 -65 19 -24 26 -43 26 -75 0 -24 -4 -46 -10 -50
-29 -18 -72 145 -51 198 15 37 21 34 14 -8z m1937 -20 c42 -22 43 -24 17 -25
-32 0 -91 23 -101 39 -12 19 37 11 84 -14z m-2590 -96 c0 -31 -4 -48 -10 -44
-5 3 -10 26 -10 51 0 24 5 44 10 44 6 0 10 -23 10 -51z m778 -16 c13 -32 25
-76 28 -98 5 -38 5 -39 -11 -20 -14 18 -33 74 -49 148 -11 47 8 29 32 -30z
m1382 21 c0 -16 -26 -19 -35 -4 -4 6 -4 18 -1 27 5 12 9 13 21 3 8 -7 15 -19
15 -26z m719 -8 c9 -10 8 -16 -3 -25 -18 -15 -56 2 -56 24 0 19 44 20 59 1z
m-2539 -166 c41 -167 47 -210 31 -210 -20 0 -63 178 -76 315 -4 39 -5 68 -2
65 4 -3 24 -80 47 -170z m283 91 c40 -87 74 -197 64 -207 -10 -10 -37 16 -57
56 -19 37 -60 184 -60 214 0 35 19 12 53 -63z m2378 -32 c91 -49 71 -65 -22
-18 -40 20 -69 49 -49 49 7 0 39 -14 71 -31z m-2231 -109 c36 -73 74 -179 67
-187 -10 -9 -43 36 -86 118 -58 109 -76 207 -28 147 11 -13 32 -48 47 -78z
m120 53 c0 -22 -26 -15 -38 11 -6 13 -8 27 -5 30 9 8 43 -24 43 -41z m-743
-30 c-2 -16 -4 -5 -4 22 0 28 2 40 4 28 2 -13 2 -35 0 -50z m1254 -82 c38 -57
93 -154 123 -215 51 -102 117 -189 132 -174 3 4 -11 36 -31 72 -20 36 -34 66
-31 66 3 0 24 -26 48 -57 23 -32 55 -73 72 -91 28 -30 34 -32 73 -26 37 5 48
2 77 -20 62 -47 74 -28 28 45 -38 58 -67 83 -91 76 -26 -6 -55 15 -71 53 -16
40 1 62 44 58 24 -2 32 -8 35 -28 3 -25 3 -25 -18 -6 -12 11 -21 14 -21 7 0
-13 58 -51 78 -51 6 0 12 6 12 14 0 26 -173 246 -193 246 -5 0 3 -21 18 -46
15 -25 24 -49 20 -52 -9 -9 -53 43 -116 135 -61 89 -65 115 -12 78 12 -8 28
-13 35 -10 26 10 267 -256 313 -345 l16 -30 -36 0 -36 0 23 -41 c30 -54 155
-188 219 -235 35 -25 57 -51 70 -82 11 -24 28 -46 38 -49 11 -3 22 -16 25 -29
4 -13 56 -89 116 -169 60 -80 112 -156 116 -169 4 -19 14 -25 49 -29 49 -5
124 -41 198 -94 27 -19 51 -32 54 -29 7 6 -38 79 -71 115 -11 13 -31 27 -43
32 -15 6 -20 14 -16 29 7 25 -17 53 -58 70 -16 7 -29 19 -29 28 0 9 -18 43
-40 78 -29 43 -44 79 -50 122 -6 33 -24 90 -41 126 -17 37 -29 69 -26 72 17
18 110 -164 106 -210 0 -11 -1 -26 0 -32 1 -6 60 -75 131 -155 72 -79 172
-193 222 -254 50 -60 120 -134 155 -164 43 -37 66 -64 70 -83 3 -16 18 -39 33
-50 16 -11 30 -33 34 -48 3 -20 49 -69 152 -165 186 -172 336 -302 400 -345
71 -48 90 -67 149 -146 30 -40 69 -84 88 -98 46 -36 54 -56 21 -56 -14 0 -27
7 -31 18 -9 22 -34 41 -55 42 -14 0 -16 -6 -11 -31 6 -30 5 -31 -18 -19 -46
24 -195 130 -235 166 l-39 36 35 -20 c19 -10 72 -43 117 -72 45 -28 88 -50 95
-48 25 9 -299 307 -482 446 -92 69 -326 169 -346 149 -12 -12 11 -31 71 -58
77 -34 178 -117 196 -159 10 -22 19 -30 32 -26 21 5 22 -7 2 -24 -12 -10 -22
-7 -52 11 -90 56 -327 250 -344 281 -10 19 -8 19 22 13 l33 -7 -17 25 c-24 37
-22 38 28 16 30 -13 56 -18 74 -14 17 4 44 0 65 -9 26 -11 36 -12 36 -3 -1 16
-131 178 -196 243 -83 82 -326 219 -378 212 -17 -2 -7 -13 49 -52 87 -61 148
-118 187 -175 l31 -44 -28 7 c-37 9 -80 47 -184 160 -159 173 -321 381 -321
412 0 7 -15 21 -32 30 -18 9 -50 32 -70 52 -21 20 -38 33 -38 29 0 -4 49 -83
108 -175 132 -204 131 -202 102 -177 -62 54 -250 318 -250 350 0 12 9 30 20
40 28 25 25 46 -12 83 -30 28 -172 102 -198 102 -16 0 -90 38 -126 66 -24 18
-34 20 -43 11 -9 -9 -20 -3 -45 28 -29 34 -36 38 -49 26 -23 -19 -61 11 -130
101 -100 130 -256 415 -242 438 11 18 34 -8 106 -119z m340 108 c48 -24 152
-125 199 -194 19 -28 39 -70 46 -94 10 -41 15 -46 60 -61 27 -10 64 -23 82
-30 18 -7 41 -10 52 -7 12 3 35 -5 56 -20 l37 -24 -7 47 c-5 40 -4 45 9 34 17
-14 19 -57 5 -95 -11 -30 -12 -30 -123 12 -37 15 -70 24 -73 21 -2 -3 11 -32
30 -64 20 -32 33 -60 31 -62 -21 -21 -285 272 -285 316 0 8 7 24 17 34 15 17
15 19 -2 38 -11 12 -25 18 -36 15 -20 -7 -149 115 -149 140 0 19 3 19 51 -6z
m1192 -26 c38 -16 63 -45 52 -63 -10 -16 -21 -12 -66 26 -23 19 -55 38 -70 41
-16 3 -26 10 -23 15 7 11 52 2 107 -19z m258 -12 c13 -11 21 -23 17 -27 -9 -8
-88 25 -88 38 0 15 48 8 71 -11z m-1210 -78 c49 -51 99 -127 99 -150 0 -4 -19
11 -41 32 -55 53 -169 186 -169 197 0 18 57 -22 111 -79z m1672 42 c44 -33 58
-57 38 -69 -15 -10 -111 75 -111 98 0 14 29 3 73 -29z m-3085 -140 c76 -213
163 -487 158 -499 -5 -15 -118 222 -146 308 l-23 69 -17 -23 c-17 -23 -17 -21
-12 50 3 49 2 71 -6 67 -5 -4 -13 0 -16 9 -10 25 -7 179 3 169 5 -6 31 -73 59
-150z m301 112 c26 -54 28 -75 5 -56 -19 16 -44 63 -44 84 0 28 18 15 39 -28z
m113 -75 c33 -36 39 -49 36 -80 -4 -53 -31 -55 -57 -4 -19 38 -61 175 -61 197
1 5 10 -8 22 -30 11 -22 38 -59 60 -83z m1664 37 c15 -17 15 -19 1 -25 -8 -3
-25 0 -37 6 -30 16 -100 80 -100 92 0 12 114 -49 136 -73z m-1436 46 c6 -8 10
-22 8 -32 -3 -14 -8 -11 -21 15 -18 32 -9 44 13 17z m1251 -32 c7 -13 9 -26 5
-30 -10 -10 -68 55 -61 67 8 13 41 -9 56 -37z m680 -12 c24 -15 55 -41 69 -56
l25 -28 -34 7 c-47 9 -149 57 -133 63 6 3 12 13 12 24 0 25 8 24 61 -10z
m-1795 -73 c54 -84 86 -148 108 -215 13 -39 37 -73 95 -136 143 -154 228 -291
262 -420 22 -85 21 -80 9 -72 -5 3 -50 70 -100 150 -50 79 -108 159 -128 177
-20 18 -92 64 -159 102 -67 38 -139 86 -159 107 -33 34 -37 44 -36 83 2 32 -8
67 -33 125 -40 91 -40 91 -20 91 25 0 84 -102 120 -205 19 -54 42 -107 52
-118 20 -22 133 -77 159 -77 22 0 16 13 -54 117 -67 99 -176 286 -197 337 -11
27 -12 35 -2 39 18 7 36 -11 83 -85z m-626 2 c23 -33 60 -132 60 -163 0 -16
-2 -17 -15 -7 -26 21 -87 132 -92 167 -7 43 17 45 47 3z m408 -57 c45 -69 62
-116 61 -165 0 -42 -1 -41 -64 82 -35 69 -64 131 -64 138 -1 24 36 -6 67 -55z
m2510 52 c13 -13 -25 -25 -63 -19 -27 4 -55 0 -83 -11 -46 -19 -92 -14 -92 10
0 8 13 16 33 19 17 3 43 8 57 10 33 6 140 0 148 -9z m-1962 -119 c11 -19 12
-32 6 -38 -7 -7 -25 12 -56 60 -25 39 -46 76 -46 84 1 16 75 -66 96 -106z
m-1216 74 c0 -10 -4 -22 -10 -25 -6 -4 -10 7 -10 25 0 18 4 29 10 25 6 -3 10
-15 10 -25z m2180 11 c7 -13 7 -22 0 -26 -15 -9 -30 4 -30 26 0 25 16 25 30 0z
m285 -52 c35 -17 73 -42 86 -55 14 -15 34 -24 51 -24 37 0 68 -16 68 -35 0
-19 4 -20 -87 11 -115 38 -193 89 -193 126 0 13 9 10 75 -23z m245 6 c6 -8 10
-19 8 -24 -4 -11 -78 17 -78 30 0 15 57 10 70 -6z m397 -30 c1 -32 -1 -35 -25
-35 -28 0 -84 31 -83 46 0 5 22 12 48 15 27 3 50 7 53 7 3 1 6 -14 7 -33z
m-182 13 c14 -6 25 -17 25 -25 0 -17 -14 -17 -50 2 -53 27 -30 48 25 23z
m-3365 -30 c0 -23 -3 -29 -9 -19 -8 12 -4 51 5 51 2 0 4 -15 4 -32z m160 -6
c0 -9 -5 -24 -10 -32 -7 -11 -10 -5 -10 23 0 23 4 36 10 32 6 -3 10 -14 10
-23z m3077 1 c6 -16 -32 -57 -45 -49 -9 5 -8 15 4 37 14 29 34 35 41 12z
m-619 -26 c17 -13 15 -27 -3 -27 -25 0 -76 30 -70 40 7 11 53 3 73 -13z
m-1559 -101 c42 -101 39 -125 -6 -52 -64 103 -52 22 15 -108 20 -37 45 -72 56
-78 14 -6 21 -19 22 -39 1 -16 31 -90 68 -164 36 -74 66 -141 66 -149 0 -25
12 -46 25 -46 20 0 80 -74 130 -160 43 -74 83 -176 72 -186 -3 -3 -28 30 -57
74 -55 87 -88 124 -71 81 5 -13 30 -68 55 -121 25 -54 42 -98 38 -98 -21 0
-162 268 -162 307 0 14 4 13 25 -7 14 -13 25 -19 25 -13 0 11 -23 34 -62 63
-45 34 -188 333 -266 555 -24 71 -36 123 -39 180 l-4 80 19 -22 c11 -13 34
-56 51 -97z m-130 -50 c65 -114 122 -254 131 -321 5 -33 20 -93 34 -134 14
-41 24 -76 22 -79 -3 -2 -18 22 -34 54 -52 103 -263 606 -262 624 2 14 70 -77
109 -144z m1892 123 c11 -11 18 -23 15 -26 -5 -5 -66 34 -66 43 0 12 33 1 51
-17z m972 -21 c44 -55 91 -127 86 -132 -2 -3 -16 -7 -32 -11 -20 -5 -27 -4
-27 8 0 8 -22 43 -50 77 -27 34 -50 71 -50 81 0 33 37 21 73 -23z m-136 6 c11
-29 -12 -36 -56 -18 -30 12 -39 19 -29 25 23 15 78 10 85 -7z m-219 -1 c-16
-2 -40 -2 -55 0 -16 2 -3 4 27 4 30 0 43 -2 28 -4z m-698 -28 c13 -14 21 -27
19 -29 -6 -6 -20 4 -43 32 -26 30 -5 28 24 -3z m-2200 -20 c0 -14 -4 -25 -10
-25 -5 0 -10 11 -10 25 0 14 5 25 10 25 6 0 10 -11 10 -25z m3429 -82 c44 -56
94 -109 111 -118 16 -8 30 -13 30 -10 0 15 70 -34 131 -91 62 -58 99 -79 99
-56 0 5 -13 27 -30 48 -16 21 -44 57 -60 78 -17 22 -28 42 -24 45 6 6 60 -49
177 -182 66 -74 97 -94 97 -62 0 26 46 37 84 21 19 -8 37 -19 40 -25 8 -13 46
-15 46 -3 0 5 -13 21 -29 36 -49 47 -46 88 3 51 30 -22 34 -19 41 30 4 24 13
52 20 62 21 28 45 0 45 -51 0 -105 -59 -209 -126 -222 -50 -9 -153 27 -270 96
-229 134 -386 271 -450 393 -20 38 -32 68 -26 66 6 -2 46 -50 91 -106z m-1349
57 c11 -11 20 -24 20 -29 0 -5 8 -7 19 -4 26 7 87 -48 78 -70 -4 -10 -11 -17
-16 -17 -13 0 -141 119 -141 131 0 15 19 10 40 -11z m513 3 c9 -8 -43 -43 -64
-43 -9 0 -22 7 -30 16 -10 13 -10 17 2 25 16 10 83 12 92 2z m476 -9 c2 -2
-34 -3 -80 -3 -64 1 -76 3 -49 9 32 7 119 3 129 -6z m472 -78 c34 -46 38 -67
8 -40 -23 21 -79 98 -79 110 0 12 41 -28 71 -70z m-3621 32 c0 -21 -3 -29 -10
-22 -5 5 -7 19 -4 32 9 31 14 27 14 -10z m2870 1 c52 -12 128 -22 168 -23 71
-1 72 -1 51 -18 -39 -32 -254 -16 -295 23 -12 11 -34 24 -50 29 l-29 8 30 1
c17 1 73 -8 125 -20z m-2964 -56 c14 -32 20 -112 8 -100 -3 3 -17 43 -29 89
-24 84 -13 89 21 11z m2257 -28 c41 -38 47 -55 17 -55 -20 0 -150 114 -150
132 0 14 90 -38 133 -77z m-2036 17 c3 -13 1 -28 -4 -33 -7 -7 -13 2 -17 26
-4 20 -10 44 -12 53 -4 13 -2 12 11 -3 9 -11 18 -30 22 -43z m2468 29 c39 -12
81 -28 95 -36 25 -14 25 -14 -16 -15 -66 0 -184 46 -184 72 0 10 2 10 105 -21z
m-1799 -30 c14 -22 24 -48 22 -58 -3 -13 -12 -3 -31 34 -15 29 -27 55 -27 58
0 13 12 2 36 -34z m2447 7 c34 -45 50 -78 38 -78 -9 0 -81 92 -81 104 0 16 21
3 43 -26z m183 5 c-10 -10 -19 5 -10 18 6 11 8 11 12 0 2 -7 1 -15 -2 -18z
m-2158 -43 c27 -29 32 -31 31 -15 -2 34 0 38 16 25 8 -7 15 -26 15 -43 0 -17
24 -83 54 -146 29 -64 56 -134 59 -155 5 -31 20 -53 66 -100 107 -109 300
-392 344 -503 40 -101 -42 -20 -173 172 -88 128 -144 194 -156 182 -3 -3 23
-52 59 -109 70 -113 124 -214 108 -204 -5 4 -47 55 -92 114 -150 194 -248 270
-369 287 -61 8 -78 26 -60 61 15 27 15 27 -75 194 -41 77 -46 109 -9 63 14
-18 32 -33 39 -33 20 0 80 -82 116 -157 23 -49 39 -68 72 -87 50 -28 237 -99
244 -92 3 2 -31 42 -76 87 -57 58 -81 89 -81 107 0 35 -42 114 -120 222 -86
120 -110 168 -90 180 16 10 30 2 78 -50z m1208 16 c93 -31 134 -53 134 -71 0
-21 -3 -20 -120 40 -116 59 -119 67 -14 31z m-698 -24 c30 -15 73 -43 96 -63
41 -36 106 -139 88 -139 -5 0 -41 27 -80 59 -77 65 -101 76 -139 67 -15 -4
-22 -3 -18 3 7 12 -17 62 -39 80 -47 39 5 34 92 -7z m-1973 -23 c9 -17 14 -38
12 -47 -3 -12 -9 -6 -20 20 -27 60 -20 82 8 27z m612 9 c31 -34 52 -80 67
-150 19 -84 27 -168 17 -168 -13 0 -111 244 -111 278 0 8 -10 26 -22 39 l-21
23 25 0 c13 0 34 -10 45 -22z m2548 2 c0 -8 -8 -16 -18 -18 -30 -6 -67 7 -67
24 0 12 10 14 43 12 29 -2 42 -8 42 -18z m247 -31 c46 -37 68 -49 85 -44 17 4
29 -4 55 -36 99 -124 135 -149 103 -73 l-16 39 31 -30 c18 -17 45 -51 62 -77
44 -68 78 -73 64 -10 l-6 27 22 -26 c13 -15 42 -52 66 -83 68 -91 100 -91 58
0 -15 31 -25 58 -23 60 1 1 38 -42 82 -97 88 -110 122 -139 131 -115 3 8 1 23
-5 35 -18 33 -13 34 26 2 38 -31 73 -41 73 -20 0 6 -17 32 -38 58 -52 62 -96
130 -89 137 3 3 54 -42 114 -99 l108 -105 -24 -26 c-60 -64 -166 -84 -248 -46
-118 53 -682 481 -714 542 -10 19 -5 38 11 38 5 0 37 -23 72 -51z m-2851 -77
c21 -48 27 -122 8 -89 -10 18 -69 185 -69 196 0 11 43 -64 61 -107z m433 -15
c74 -126 136 -256 130 -272 -14 -34 -76 39 -137 160 -38 78 -71 205 -52 205 2
0 29 -42 59 -93z m3186 -5 c0 -21 -25 2 -62 57 l-31 46 47 -45 c25 -24 46 -51
46 -58z m-1844 74 c10 -8 16 -18 12 -22 -10 -9 -58 12 -58 26 0 14 23 12 46
-4z m331 -89 c37 -40 83 -114 83 -134 0 -11 -66 55 -121 120 -77 91 -44 103
38 14z m-2482 -11 c9 -66 2 -92 -14 -53 -13 34 -15 107 -2 107 5 0 13 -24 16
-54z m2745 -4 c65 -68 175 -210 168 -218 -16 -15 -193 163 -239 240 -19 33
-20 36 -3 36 10 0 43 -26 74 -58z m299 -70 c96 -98 140 -135 183 -155 32 -15
115 -61 184 -102 180 -106 355 -163 379 -125 14 23 75 4 75 -23 0 -14 -68 -37
-112 -37 -143 1 -359 102 -558 263 -168 136 -326 307 -283 307 4 0 63 -58 132
-128z m-2094 96 c45 -22 53 -32 35 -43 -5 -3 -10 -32 -10 -63 l-1 -57 -19 24
c-11 13 -20 31 -20 40 -1 9 -9 40 -19 69 -10 28 -16 52 -15 52 2 0 24 -10 49
-22z m613 -27 c40 -53 44 -91 4 -44 -15 17 -35 46 -46 64 -27 46 1 33 42 -20z
m-1392 -29 c4 -20 3 -32 -4 -32 -16 0 -32 34 -32 66 0 25 2 27 15 14 8 -9 17
-30 21 -48z m100 40 c16 -10 34 -47 34 -69 0 -10 13 -30 29 -45 32 -31 141
-238 141 -269 0 -16 -6 -20 -27 -17 -22 2 -27 8 -25 24 2 12 -6 37 -16 55 -11
19 -27 57 -36 86 -11 32 -27 58 -42 68 -25 16 -66 92 -79 148 -7 27 0 33 21
19z m794 -74 c46 -70 51 -92 15 -58 -29 27 -32 13 -9 -33 22 -44 54 -77 74
-77 11 0 16 -10 17 -34 1 -19 22 -82 48 -140 26 -59 45 -109 43 -112 -3 -2
-26 29 -52 70 -26 42 -58 84 -72 95 -21 17 -24 25 -19 54 6 31 5 34 -17 33
-28 -1 -60 57 -79 139 -10 47 -6 125 7 125 2 0 22 -28 44 -62z m3379 -2 c14
-14 20 -26 15 -26 -5 0 -30 21 -54 47 -35 35 -38 41 -15 26 17 -12 41 -33 54
-47z m-2052 -35 c90 -79 127 -123 121 -142 -7 -21 -228 188 -228 215 0 16 26
-1 107 -73z m2453 -11 c0 -17 -15 -11 -50 20 l-35 31 43 -21 c23 -11 42 -25
42 -30z m-449 -5 c35 -30 62 -45 81 -45 15 0 47 -13 70 -30 22 -16 52 -30 66
-30 15 0 36 -13 57 -35 18 -21 49 -40 71 -46 21 -6 62 -29 90 -50 55 -42 65
-45 94 -27 17 11 24 8 55 -22 21 -21 31 -38 26 -43 -10 -10 -57 3 -254 72 -65
22 -124 41 -133 41 -26 0 0 -34 114 -146 159 -158 301 -264 373 -278 14 -3 59
-28 99 -55 113 -77 108 -59 -21 81 -150 163 -124 151 90 -42 134 -121 171
-149 171 -131 0 5 -42 56 -93 113 -121 135 -149 169 -143 176 8 8 70 -43 214
-176 74 -67 147 -129 162 -137 62 -32 38 10 -65 116 -59 61 -105 112 -102 116
9 8 31 -10 208 -169 167 -150 249 -216 249 -202 0 5 -50 59 -112 121 -62 62
-108 116 -104 120 4 4 24 -11 44 -34 43 -48 97 -83 131 -83 20 0 22 3 16 27
l-6 27 32 -26 c40 -30 53 -56 19 -38 -44 23 -32 -1 33 -69 69 -71 78 -90 52
-111 -35 -29 -311 57 -655 205 -118 51 -287 122 -375 158 -88 36 -257 111
-375 167 -118 56 -243 115 -277 131 -76 36 -107 72 -99 114 4 16 10 33 15 38
4 4 37 -17 72 -47 35 -31 65 -52 67 -46 2 5 -21 46 -52 90 -30 44 -52 80 -49
80 3 0 39 -30 80 -67 150 -136 198 -173 245 -187 26 -8 88 -43 137 -77 141
-98 136 -64 -15 100 -51 56 -106 121 -121 143 -20 30 -52 54 -113 88 -46 26
-92 58 -102 71 -18 23 -37 99 -25 99 3 0 29 -20 58 -45z m-2762 -49 c42 -37
81 -98 81 -127 0 -17 7 -32 18 -38 24 -13 76 -116 68 -136 -8 -23 -23 -18 -49
18 -37 48 -57 93 -57 125 0 32 -38 87 -90 128 l-35 28 31 -35 c63 -70 86 -121
44 -99 -20 10 -99 111 -122 154 -9 16 -7 18 6 13 10 -4 19 -1 23 9 5 13 9 13
32 -2 14 -9 37 -26 50 -38z m3009 42 c7 -7 12 -21 12 -31 0 -16 -3 -17 -14 -8
-15 13 -28 51 -17 51 4 0 12 -5 19 -12z m-1962 -49 c27 -17 62 -43 77 -58 30
-28 62 -80 54 -88 -5 -5 -180 148 -192 167 -11 18 10 10 61 -21z m2385 -64
c100 -65 122 -85 94 -85 -28 0 -235 143 -235 162 0 11 24 -2 141 -77z m-4787
7 c13 -26 27 -58 31 -72 8 -25 7 -25 -13 -7 -36 33 -83 151 -52 132 6 -4 21
-27 34 -53z m4560 -32 c25 -27 46 -52 46 -55 0 -17 -33 0 -69 36 -38 38 -53
69 -32 69 4 0 29 -22 55 -50z m-4275 -102 c38 -79 73 -158 79 -176 10 -29 9
-33 -5 -30 -33 6 -99 153 -148 326 -16 55 12 11 74 -120z m-554 17 c28 -74 28
-75 16 -75 -12 0 -71 135 -71 162 l0 22 15 -21 c9 -12 27 -52 40 -88z m5011
23 c49 -67 58 -94 18 -57 -28 25 -84 107 -84 122 0 16 22 -6 66 -65z m-4886
43 c13 -25 13 -98 0 -106 -11 -7 -44 100 -35 115 10 16 23 12 35 -9z m915
-127 c31 -58 84 -151 119 -207 39 -62 70 -127 79 -163 9 -32 19 -67 22 -76 14
-36 -13 -16 -58 42 -26 33 -54 60 -63 60 -13 0 -15 7 -10 31 6 30 5 31 -20 25
l-26 -7 7 51 c10 73 -8 126 -71 209 -61 79 -77 114 -68 143 9 30 27 9 89 -108z
m2192 -15 c125 -75 151 -94 140 -105 -13 -14 -357 194 -357 216 0 13 53 -14
217 -111z m351 64 c45 -37 50 -53 10 -32 -36 19 -98 70 -98 80 0 13 37 -7 88
-48z m-682 11 c27 -18 70 -74 57 -74 -14 0 -109 89 -95 90 7 0 24 -7 38 -16z
m-2078 -97 c60 -78 90 -147 64 -147 -14 0 -172 225 -172 245 0 14 72 -51 108
-98z m4323 72 c11 -11 18 -23 15 -26 -5 -5 -66 34 -66 43 0 12 33 1 51 -17z
m-4480 -13 c33 -23 99 -127 99 -157 0 -8 -36 22 -80 66 -74 74 -98 115 -67
115 7 0 28 -11 48 -24z m-331 -15 c12 -23 13 -88 2 -95 -9 -6 -52 76 -52 99 0
22 38 18 50 -4z m1012 -94 c22 -33 35 -58 29 -56 -13 5 -101 120 -101 133 0
16 32 -18 72 -77z m4034 58 c24 -14 49 -35 55 -46 10 -19 7 -19 -27 5 -44 30
-62 25 -38 -11 23 -36 4 -45 -76 -38 -140 12 -245 44 -245 75 0 12 13 14 66
12 41 -2 69 1 74 7 9 15 46 14 88 -4 52 -22 70 -20 57 5 -14 26 -6 25 46 -5z
m-4887 -102 c24 -40 41 -77 39 -83 -8 -24 -108 140 -108 177 0 21 6 13 69 -94z
m2658 65 c96 -48 92 -63 -9 -29 -103 36 -138 51 -138 64 0 18 79 -1 147 -35z
m-1278 -20 c38 -43 174 -205 304 -366 37 -45 67 -87 67 -92 0 -19 -122 51
-165 95 -32 31 -49 59 -60 99 -18 62 -27 72 -45 51 -7 -8 -16 -15 -21 -15 -19
0 -59 78 -63 121 -2 26 -16 65 -34 97 -17 28 -29 52 -27 52 3 0 22 -19 44 -42z
m-208 -271 c99 -131 183 -245 186 -253 10 -26 -14 -15 -98 46 -46 32 -85 57
-88 55 -2 -3 8 -23 23 -45 29 -45 84 -83 141 -99 24 -6 56 -29 89 -63 28 -29
85 -83 126 -119 41 -37 72 -70 68 -74 -17 -18 -125 57 -245 169 -35 32 -63 54
-63 49 0 -19 72 -129 98 -150 15 -11 23 -25 19 -30 -5 -4 -33 18 -62 49 -104
111 -295 357 -295 380 0 4 14 8 30 8 59 0 35 56 -84 195 -88 102 -97 116 -85
131 23 28 64 -15 240 -249z m2432 215 c63 -57 88 -72 123 -72 30 0 78 -26 138
-77 20 -17 32 -21 39 -14 17 17 21 14 78 -34 52 -44 79 -56 79 -34 0 6 -32 44
-72 85 -73 74 -96 104 -81 104 5 0 56 -43 113 -96 146 -134 184 -164 207 -164
11 0 58 -25 104 -55 92 -60 110 -66 102 -34 -6 20 -5 20 23 6 16 -8 46 -28 66
-45 21 -16 55 -33 75 -37 47 -9 84 -28 149 -77 46 -35 74 -47 74 -32 0 9 -57
89 -75 104 -9 7 -26 27 -38 44 l-22 31 31 -22 c18 -13 61 -49 96 -81 86 -78
145 -118 195 -131 22 -6 71 -34 108 -61 59 -43 141 -80 180 -80 7 0 31 -13 53
-30 25 -18 54 -30 72 -30 17 0 42 -8 57 -17 24 -16 26 -16 38 1 12 16 16 15
63 -11 50 -27 51 -28 80 -10 37 21 66 23 38 2 -19 -14 -19 -16 13 -60 l32 -45
-44 0 c-50 0 -159 29 -357 97 -173 59 -240 85 -430 171 -85 38 -240 105 -345
148 -212 87 -854 404 -927 459 -28 21 -48 43 -48 54 0 11 -12 33 -26 50 -36
43 -12 39 39 -7z m-81 -22 c38 -34 28 -38 -35 -11 -57 25 -68 41 -28 41 20 0
42 -10 63 -30z m-2729 -10 c62 -49 204 -265 194 -293 -9 -25 -257 263 -257
299 0 20 33 17 63 -6z m840 -77 c130 -134 360 -423 315 -397 -21 12 -193 207
-295 334 -130 161 -136 182 -20 63z m-2007 -38 c16 -40 18 -55 5 -55 -11 0
-51 62 -51 79 0 25 32 9 46 -24z m251 -25 c33 -54 43 -87 23 -75 -20 13 -90
107 -90 122 0 31 36 6 67 -47z m2488 29 c20 -18 34 -34 31 -36 -7 -7 -106 48
-106 59 0 19 42 6 75 -23z m-2136 -36 c15 -32 31 -69 35 -83 7 -24 7 -25 -10
-5 -20 24 -64 115 -64 133 0 23 10 12 39 -45z m173 -34 c21 -42 41 -91 44
-110 7 -33 7 -34 -13 -16 -24 21 -81 135 -90 179 -11 55 19 28 59 -53z m3782
-8 c16 -17 27 -33 25 -36 -3 -2 -30 21 -60 52 -34 35 -43 48 -24 35 17 -11 43
-34 59 -51z m-1536 23 c207 -78 520 -219 509 -230 -15 -16 -627 239 -627 260
0 11 22 6 118 -30z m825 -2 c30 -16 47 -31 45 -41 -5 -23 -35 -25 -42 -4 -3
11 -20 23 -38 28 -17 6 -38 21 -47 34 -15 23 -15 23 9 16 14 -4 47 -19 73 -33z
m-1435 -45 c12 -11 22 -27 22 -35 0 -12 -5 -11 -27 3 -36 23 -83 66 -83 77 0
11 59 -19 88 -45z m380 19 c116 -45 212 -93 219 -111 3 -9 19 -15 40 -15 19 0
82 -19 141 -41 275 -106 641 -221 747 -235 29 -4 58 -15 68 -25 10 -11 26 -19
36 -19 10 0 72 -18 137 -41 66 -23 259 -88 429 -146 171 -57 366 -128 435
-158 69 -29 151 -58 184 -65 93 -19 435 -154 422 -167 -10 -10 -515 153 -774
251 -68 25 -132 46 -143 46 -11 0 -100 27 -197 59 -97 33 -203 65 -235 71 -32
7 -131 38 -220 70 -89 31 -220 72 -292 89 -71 18 -164 41 -206 51 -42 10 -131
42 -198 70 -67 28 -187 75 -269 104 -206 75 -233 87 -229 100 2 6 17 10 33 9
25 -2 21 1 -21 22 -177 85 -205 99 -205 107 0 12 3 11 98 -26z m637 -48 c122
-45 190 -77 182 -85 -11 -11 -276 91 -322 125 -19 13 -19 14 5 7 14 -4 75 -25
135 -47z m-1731 -25 c8 -20 -8 -16 -31 10 -35 38 -37 51 -5 27 17 -13 33 -29
36 -37z m-891 -132 c132 -199 112 -205 -24 -8 -57 82 -62 87 -78 73 -16 -15
-19 -14 -35 3 -22 24 -12 44 16 35 19 -6 20 -3 14 27 -8 43 -6 41 107 -130z
m-271 112 c29 -31 52 -74 62 -116 13 -54 -7 -49 -38 9 -18 33 -43 76 -55 97
-28 45 -9 52 31 10z m3618 -20 c108 -44 247 -116 233 -120 -6 -2 -51 14 -99
36 -49 21 -109 45 -134 51 -56 15 -140 57 -140 70 0 14 40 4 140 -37z m-2912
-30 c36 -46 55 -83 48 -90 -13 -13 -58 10 -76 40 -21 33 -27 87 -11 87 5 0 23
-17 39 -37z m722 -89 c35 -19 73 -54 120 -113 79 -97 85 -126 7 -36 -105 122
-143 148 -141 96 1 -30 -9 -26 -46 16 -38 42 -60 91 -60 129 0 25 2 25 35 -19
19 -25 58 -58 85 -73z m-948 79 c24 -28 46 -75 54 -117 9 -51 -2 -43 -62 44
-40 59 -46 73 -34 80 21 13 25 12 42 -7z m941 -193 c8 0 20 -14 26 -31 6 -16
47 -77 91 -135 44 -57 77 -104 72 -104 -10 0 -211 220 -294 320 -118 146 -121
154 -16 53 59 -57 113 -103 121 -103z m-494 146 c31 -50 28 -68 -11 -64 -24 2
-34 8 -36 24 -3 20 13 74 22 74 2 0 14 -15 25 -34z m2391 -21 c44 -22 72 -45
55 -45 -10 0 -109 50 -119 61 -18 17 14 9 64 -16z m-1659 -35 c86 -60 300
-272 288 -285 -7 -6 -139 98 -202 159 -33 31 -68 56 -79 56 -10 0 -29 5 -41
11 -24 13 -97 79 -97 89 0 15 99 -8 131 -30z m-1681 -5 c7 -8 10 -18 7 -22 -8
-7 -35 14 -48 39 -9 17 -8 18 9 9 10 -5 25 -17 32 -26z m4819 -49 c14 -14 20
-26 15 -26 -5 0 -30 21 -54 47 -35 35 -38 41 -15 26 17 -12 41 -33 54 -47z
m-4895 -5 c15 -17 16 -21 4 -21 -8 0 -25 14 -37 31 -19 26 -20 29 -4 21 10 -6
27 -20 37 -31z m3671 -12 c58 -22 79 -39 47 -39 -24 0 -81 23 -124 51 -33 21
-33 21 -5 15 15 -4 52 -16 82 -27z m1419 -71 c36 -40 66 -77 66 -82 0 -12 -99
84 -143 138 -53 66 2 26 77 -56z m-3984 31 c11 -21 20 -48 20 -60 0 -22 0 -22
-20 -4 -32 29 -63 84 -56 100 8 23 35 6 56 -36z m1553 22 c196 -68 876 -335
949 -372 22 -11 38 -22 35 -25 -8 -9 -432 140 -627 221 -63 26 -161 65 -217
86 -115 42 -233 99 -233 111 0 11 1 11 93 -21z m1512 5 c33 -7 72 -20 85 -28
14 -9 41 -19 60 -23 42 -8 529 -189 583 -217 21 -10 42 -29 46 -41 7 -18 17
-23 51 -24 47 -2 157 -33 375 -104 189 -62 238 -69 268 -42 61 56 89 46 89
-32 0 -54 -15 -75 -51 -75 -66 1 -435 113 -562 171 -48 22 -120 51 -160 64
-41 14 -92 38 -114 54 -23 16 -65 37 -95 46 -219 67 -550 195 -632 245 -38 23
-27 24 57 6z m-3237 -8 c18 -18 15 -38 -6 -38 -23 0 -64 29 -57 41 9 13 49 11
63 -3z m-129 -78 c23 -33 38 -60 32 -60 -11 0 -101 117 -101 132 0 17 24 -8
69 -72z m205 -42 c18 -25 21 -48 7 -48 -19 0 -64 47 -57 58 11 19 33 14 50
-10z m796 -44 c52 -47 145 -154 133 -154 -12 0 -171 148 -184 171 -16 31 6 23
51 -17z m322 3 c191 -147 272 -207 403 -297 172 -118 201 -140 188 -140 -17 0
-189 102 -335 201 -166 110 -198 129 -227 129 -13 0 -21 8 -23 23 -2 14 -11
23 -25 25 -14 2 -20 8 -16 18 3 8 -2 25 -11 39 -31 47 -14 48 46 2z m236 0
c12 -11 22 -24 22 -28 0 -16 -27 2 -50 33 -24 32 -11 30 28 -5z m-1798 -17
c18 -17 30 -33 27 -37 -8 -7 -77 44 -77 58 0 17 17 9 50 -21z m3569 9 c18 -11
31 -22 28 -25 -7 -7 -73 21 -81 35 -11 18 16 13 53 -10z m-2094 -94 c187 -137
367 -277 362 -281 -2 -2 -56 21 -120 51 -106 50 -125 63 -222 157 -95 91 -194
201 -155 172 8 -6 69 -51 135 -99z m3360 75 c16 -16 24 -30 19 -30 -6 0 -23
14 -39 30 -16 17 -24 30 -19 30 6 0 23 -13 39 -30z m-3915 -35 c95 -29 158
-65 220 -128 69 -70 73 -90 5 -28 -24 22 -53 41 -64 41 -11 0 -39 15 -63 33
-59 45 -67 49 -78 42 -6 -4 -4 -18 6 -37 l16 -31 -31 22 c-52 38 -115 122 -78
108 6 -3 37 -13 67 -22z m1414 -6 c26 -17 45 -34 42 -36 -7 -7 -106 48 -106
59 0 14 15 9 64 -23z m1376 3 c13 -8 19 -17 13 -19 -14 -5 -69 22 -79 38 -9
14 32 3 66 -19z m-3382 -6 c26 -13 58 -33 72 -45 24 -19 24 -20 4 -21 -18 0
-134 74 -134 86 0 8 10 4 58 -20z m429 -3 c22 -15 39 -50 29 -60 -9 -9 -63 17
-92 44 -22 20 -24 27 -13 34 16 10 43 3 76 -18z m2028 -173 c116 -42 453 -174
528 -207 60 -27 77 -48 30 -37 -16 4 -71 24 -124 45 -53 20 -230 88 -394 149
-309 116 -405 156 -405 171 0 7 49 -9 365 -121z m-3052 92 c19 -16 23 -32 8
-32 -5 0 -20 14 -32 32 -22 31 -12 31 24 0z m877 -2 c59 -30 130 -85 130 -101
0 -13 -30 1 -100 47 -129 86 -143 111 -30 54z m-709 10 c21 -12 26 -40 6 -40
-17 0 -37 20 -37 37 0 16 5 16 31 3z m1461 -52 c163 -121 412 -274 533 -327
56 -25 90 -53 111 -93 14 -27 14 -27 -10 -18 -61 23 -196 96 -241 130 -27 21
-102 68 -165 106 -206 121 -340 220 -340 252 0 24 31 10 112 -50z m-1161 -17
c46 -41 49 -65 5 -35 -30 19 -72 74 -58 74 5 0 29 -18 53 -39z m4149 -17 c56
-22 50 -36 -7 -19 -27 8 -49 15 -50 15 -2 0 -3 5 -3 10 0 14 13 13 60 -6z
m-1826 -43 c41 -23 46 -44 9 -35 -53 12 -115 43 -108 54 9 14 59 4 99 -19z
m755 -12 c62 -28 89 -49 63 -49 -14 0 -176 72 -187 82 -18 19 49 1 124 -33z
m-3319 6 c13 -14 21 -27 18 -30 -2 -3 -17 9 -33 25 -16 17 -24 30 -19 30 6 0
21 -11 34 -25z m1253 -54 c59 -40 107 -91 107 -113 0 -14 8 -18 37 -18 21 0
61 -12 89 -26 52 -26 143 -109 132 -119 -9 -10 -196 88 -293 153 -93 62 -175
135 -175 154 0 18 57 1 103 -31z m3439 -10 c136 -47 228 -84 228 -92 0 -12
-55 4 -182 52 -212 80 -245 109 -46 40z m-3279 18 c36 -19 118 -81 113 -86
-10 -11 -146 70 -146 88 0 12 7 11 33 -2z m-445 -109 c8 -23 -21 -5 -47 31
l-26 34 34 -26 c19 -14 37 -32 39 -39z m245 4 c21 -14 36 -28 33 -31 -6 -6
-86 43 -86 52 0 11 17 4 53 -21z m2487 -6 c25 -11 39 -22 32 -25 -6 -3 -40 9
-75 26 -69 35 -34 34 43 -1z m462 -24 c67 -20 211 -70 318 -111 107 -41 247
-93 310 -115 124 -43 152 -58 105 -58 -36 0 -275 80 -566 188 -346 130 -411
167 -167 96z m-1817 -44 c13 -22 -23 -8 -55 20 l-35 31 42 -20 c23 -12 44 -25
48 -31z m498 -9 c351 -130 1125 -435 1392 -549 77 -33 268 -112 425 -175 580
-235 1149 -476 1184 -502 78 -58 -127 7 -429 137 -115 50 -237 101 -270 113
-33 13 -127 53 -210 90 -82 36 -208 89 -280 116 -71 28 -202 80 -290 116 -88
36 -239 96 -335 133 -96 37 -265 104 -375 147 -110 44 -265 104 -345 133 -243
88 -570 238 -601 276 -16 20 -12 19 134 -35z m-1854 12 c67 -38 151 -102 151
-113 0 -25 -139 52 -189 104 -41 43 -26 46 38 9z m2854 10 c25 -13 28 -18 14
-21 -10 -2 -32 6 -50 17 -40 26 -11 29 36 4z m-146 -24 c94 -37 269 -127 285
-147 9 -10 2 -10 -27 3 -22 10 -78 33 -125 52 -163 65 -205 84 -230 103 -25
19 -25 20 -3 20 12 0 57 -14 100 -31z m-1061 -20 c47 -32 84 -74 84 -96 0 -17
-71 31 -139 95 -44 42 -45 43 -17 37 16 -3 48 -19 72 -36z m-2276 -14 c54 -27
78 -52 39 -40 -27 8 -109 53 -109 60 0 10 23 4 70 -20z m258 13 c30 -30 5 -37
-29 -8 -23 19 -23 19 -3 20 11 0 25 -5 32 -12z m4542 2 c0 -5 -11 -10 -25 -10
-14 0 -25 5 -25 10 0 6 11 10 25 10 14 0 25 -4 25 -10z m-2766 -54 c129 -44
176 -64 176 -76 0 -10 -67 8 -180 50 -169 61 -166 83 4 26z m865 7 c25 -14 40
-28 34 -30 -11 -4 -113 43 -113 52 0 13 38 2 79 -22z m-1483 -37 c120 -60 175
-95 149 -96 -23 0 -208 90 -245 119 -43 35 -1 24 96 -23z m-1600 -32 c24 -23
31 -44 15 -44 -17 0 -101 71 -101 86 0 12 4 12 31 -2 18 -9 43 -27 55 -40z
m138 35 l27 -21 -43 -44 -43 -44 -7 37 c-13 74 -10 93 16 93 13 0 35 -9 50
-21z m5098 -104 c101 -115 135 -170 117 -191 -8 -10 -22 -13 -43 -9 -43 9
-249 75 -258 84 -4 3 43 3 105 -1 61 -4 113 -6 114 -4 2 1 -19 34 -46 73 -46
65 -84 103 -126 129 -12 7 -16 16 -12 28 6 16 8 16 38 -1 18 -10 68 -58 111
-108z m-1987 81 c45 -19 47 -38 3 -24 -18 5 -41 12 -50 15 -10 3 -18 9 -18 14
0 13 26 11 65 -5z m900 -35 c44 -20 72 -37 63 -39 -19 -4 -167 52 -194 73 -18
15 -17 16 16 9 19 -3 71 -23 115 -43z m-3837 -5 c12 -12 11 -16 -8 -26 -22
-12 -35 -7 -35 13 0 7 -10 13 -22 15 -13 2 -23 8 -23 14 0 15 70 2 88 -16z
m1775 7 c25 -13 28 -18 14 -21 -10 -2 -32 6 -50 17 -40 26 -11 29 36 4z
m-2338 -13 c4 -6 -5 -10 -19 -10 -14 0 -26 5 -26 10 0 6 9 10 19 10 11 0 23
-4 26 -10z m2861 -37 c111 -49 174 -89 174 -109 0 -13 -6 -15 -27 -9 -41 10
-231 92 -280 121 -103 60 -4 58 133 -3z m-3038 1 c29 -20 28 -42 -3 -50 -41
-10 -93 35 -68 59 11 12 48 7 71 -9z m354 -1 c22 -27 40 -78 36 -105 -3 -20
-8 -15 -36 32 -31 54 -41 90 -24 90 5 0 16 -8 24 -17z m-144 -29 c61 -43 -11
-150 -74 -109 -26 17 -32 43 -11 49 6 3 25 7 40 11 28 6 28 7 13 30 -9 13 -16
27 -16 30 0 10 26 5 48 -11z m2701 -78 c22 -14 10 -25 -21 -20 -38 7 -228 94
-228 104 0 7 225 -70 249 -84z m2403 54 c35 -10 72 -27 83 -35 19 -15 17 -16
-25 -10 -43 6 -150 48 -150 59 0 10 27 6 92 -14z m-4770 -21 c33 -24 35 -35
10 -48 -24 -13 -56 8 -78 51 l-16 31 28 -7 c15 -4 40 -16 56 -27z m2800 14
c19 -17 25 -63 8 -63 -10 0 -50 58 -50 73 0 13 23 8 42 -10z m-1837 -10 c30
-14 47 -33 30 -33 -17 0 -75 31 -75 39 0 14 3 14 45 -6z m2821 -7 c78 -26 158
-65 151 -72 -8 -8 -146 35 -199 62 -81 41 -57 46 48 10z m-4441 -20 c7 -12 6
-19 -5 -26 -31 -20 -70 10 -57 43 8 20 45 9 62 -17z m2646 -2 c48 -14 95 -42
86 -50 -7 -7 -167 47 -167 56 0 14 18 12 81 -6z m2489 -32 c13 -8 19 -17 13
-19 -14 -5 -69 22 -79 38 -9 14 32 3 66 -19z m-4699 -13 c29 -31 36 -49 20
-49 -17 0 -76 46 -79 63 -6 28 27 20 59 -14z m4619 -103 c441 -174 1010 -416
1225 -521 174 -85 215 -109 204 -120 -10 -9 -108 31 -369 150 -129 59 -343
151 -475 205 -450 184 -917 388 -940 411 -11 11 170 -53 355 -125z m-4854 100
c8 -21 -5 -39 -50 -75 -50 -40 -83 -49 -103 -28 -21 21 -10 67 17 67 11 0 30
11 42 25 25 28 85 35 94 11z m554 -1 c9 -11 10 -19 2 -27 -14 -14 -32 -1 -32
23 0 23 13 25 30 4z m910 -20 c25 -13 56 -32 70 -44 l25 -21 -27 9 c-39 14
-120 57 -143 76 -20 16 -19 16 5 9 14 -4 45 -17 70 -29z m-1735 -26 c4 -16 9
-29 11 -29 3 0 17 14 31 30 14 17 27 29 30 26 2 -2 -10 -33 -28 -67 l-32 -64
-14 33 c-7 17 -17 32 -23 32 -18 0 -31 39 -20 60 14 26 37 15 45 -21z m744
-15 c64 -53 26 -61 -43 -9 -54 42 -65 76 -17 51 16 -9 43 -27 60 -42z m2006
-48 c38 -100 -8 -129 -232 -145 -76 -5 -156 -6 -178 -2 -37 6 -39 8 -18 19 12
7 92 14 195 18 95 4 179 10 186 13 24 13 -67 53 -140 61 -38 4 -74 12 -79 17
-13 13 89 5 169 -13 35 -8 66 -14 69 -14 3 0 -6 19 -20 43 -28 48 -40 91 -29
101 11 12 58 -47 77 -98z m2689 53 c138 -47 339 -140 315 -146 -9 -2 -43 8
-75 22 -33 15 -133 56 -224 92 -91 36 -167 67 -169 69 -14 14 49 -2 153 -37z
m-3366 -22 c17 -14 15 -27 -5 -27 -26 0 -78 37 -61 42 16 6 49 -2 66 -15z
m-1655 7 c10 -10 -22 -64 -37 -64 -17 0 -28 27 -21 51 6 18 44 26 58 13z m70
-42 c-2 -41 -36 -122 -53 -122 -18 0 -20 19 -9 72 20 96 66 134 62 50z m427
19 c0 -36 -17 -49 -37 -28 -20 19 -8 57 18 57 14 0 19 -7 19 -29z m-616 -8
c-17 -76 -49 -192 -62 -222 -10 -26 -16 -31 -23 -20 -12 20 -11 140 2 180 13
39 56 89 76 89 9 0 12 -8 7 -27z m2615 -18 c48 -55 42 -69 -14 -35 -34 21 -49
45 -39 61 9 16 21 10 53 -26z m-1949 -17 c-1 -26 -3 -30 -10 -16 -6 9 -7 23
-4 32 9 25 14 19 14 -16z m2106 -7 c52 -38 144 -136 121 -127 -28 9 -160 103
-187 131 l-23 25 25 0 c14 0 43 -13 64 -29z m113 -4 c48 -38 107 -107 92 -107
-15 0 -159 139 -145 140 6 0 30 -15 53 -33z m820 -3 c32 -36 36 -59 11 -59
-15 0 -45 40 -55 73 -9 32 9 27 44 -14z m-4061 -7 c4 -22 -27 -35 -38 -16 -10
15 7 42 24 36 6 -2 12 -11 14 -20z m200 -10 c7 -62 -55 -78 -72 -19 -11 39 3
54 44 50 19 -2 26 -10 28 -31z m237 -34 c-8 -34 -39 -68 -54 -59 -20 13 19 86
46 86 11 0 14 -7 8 -27z m3513 -10 c20 -29 102 -188 102 -198 0 -26 -96 119
-125 188 -18 43 -5 49 23 10z m-308 -31 c0 -12 -3 -12 -15 -2 -8 7 -15 22 -15
34 1 21 1 21 15 2 8 -11 15 -26 15 -34z m885 12 c25 -25 2 -43 -25 -19 -11 10
-20 22 -20 27 0 14 28 9 45 -8z m-227 -71 c153 -241 355 -645 272 -545 -10 13
-49 82 -85 153 -37 72 -104 193 -151 270 -112 187 -118 199 -100 199 8 0 36
-35 64 -77z m-1246 19 c-25 -4 -55 15 -46 29 3 5 20 1 37 -8 30 -16 31 -18 9
-21z m789 -18 c17 -25 29 -50 27 -56 -4 -10 -78 90 -78 105 0 15 20 -4 51 -49z
m2548 -10 c86 -94 122 -174 79 -174 -34 0 -285 126 -274 137 7 8 104 -17 159
-40 26 -11 50 -18 53 -15 9 9 -8 37 -26 43 -21 7 -46 42 -56 79 -10 40 9 32
65 -30z m-6184 16 c16 -50 -31 -89 -66 -54 -10 11 -21 31 -24 47 -7 26 -6 27
38 27 37 0 47 -4 52 -20z m4282 -90 c57 -100 126 -250 119 -257 -12 -12 -170
275 -191 347 -6 22 -6 23 8 10 9 -8 38 -53 64 -100z m-4082 35 c0 -25 -4 -30
-25 -30 -28 0 -39 27 -19 51 20 24 44 13 44 -21z m55 -19 c0 -14 -4 -28 -10
-31 -6 -4 -10 7 -10 24 0 17 5 31 10 31 6 0 10 -11 10 -24z m1788 8 c53 -37
13 -62 -115 -71 l-83 -6 0 25 c0 25 21 50 50 61 33 12 126 7 148 -9z m292 7
c0 -16 -61 -31 -126 -31 -65 0 -87 11 -57 29 22 13 183 14 183 2z m2126 -103
c21 -50 53 -109 71 -130 20 -25 41 -67 54 -111 24 -84 58 -187 88 -270 19 -52
21 -67 12 -135 -6 -42 -13 -127 -17 -187 -3 -61 -12 -124 -19 -140 l-13 -30
-11 29 c-9 22 -10 93 -5 261 l7 231 -31 94 c-17 52 -38 121 -47 152 -10 36
-23 62 -35 68 -25 13 -49 61 -89 173 -35 100 -38 115 -17 97 8 -6 32 -52 52
-102z m-476 78 c0 -31 -14 -40 -30 -21 -15 18 -6 45 15 45 9 0 15 -9 15 -24z
m-4180 -6 c21 -21 24 -32 13 -43 -9 -9 -64 44 -57 55 8 13 23 9 44 -12z m1958
14 c18 -5 22 -13 22 -44 0 -46 -8 -50 -99 -50 -74 0 -98 12 -103 50 -3 23 2
26 52 37 65 13 97 15 128 7z m-278 -43 c19 -10 39 -30 44 -44 8 -22 6 -31 -15
-53 -26 -28 -89 -64 -112 -64 -12 0 -87 97 -87 113 0 16 25 5 61 -28 45 -40
59 -44 59 -14 0 28 -18 60 -49 86 l-26 22 45 1 c26 0 60 -8 80 -19z m3210 -1
c0 -23 -10 -26 -28 -8 -18 18 -15 28 8 28 13 0 20 -7 20 -20z m-4730 -12 c42
-29 47 -44 20 -58 -33 -18 -74 7 -78 48 -4 39 11 42 58 10z m3943 -71 c30 -52
44 -92 28 -83 -11 7 -71 118 -71 131 0 14 20 -8 43 -48z m936 16 c6 -21 11
-67 12 -103 l1 -65 10 45 c5 25 12 61 16 80 6 29 11 35 32 35 37 0 50 -36 50
-139 0 -87 39 -353 48 -327 2 7 -3 86 -13 174 -9 89 -15 182 -13 207 l3 45 45
-1 c52 -1 318 -108 328 -132 6 -18 -14 -263 -33 -392 -50 -337 -191 -980 -216
-980 -8 0 -24 69 -35 155 -8 63 -29 99 -54 92 -31 -8 -47 15 -54 78 -4 33 -24
152 -46 265 -22 113 -49 279 -59 370 -36 306 -64 598 -58 614 11 27 26 18 36
-21z m-2419 18 c0 -13 -27 -18 -205 -40 -202 -25 -483 -46 -492 -37 -4 3 -2
10 3 15 13 14 233 52 344 61 139 11 350 11 350 1z m2344 -118 c3 -38 10 -97
15 -133 15 -114 -15 -228 -38 -144 -19 70 -59 248 -66 291 l-7 43 30 -6 c17
-4 32 -1 36 5 16 25 25 7 30 -56z m-3481 31 c31 -21 36 -28 26 -40 -26 -32
-78 -8 -93 44 -10 31 18 29 67 -4z m2169 -29 c6 -14 8 -28 5 -32 -8 -8 -36 26
-37 45 0 21 20 13 32 -13z m167 15 c21 -11 47 -67 37 -77 -16 -17 -84 56 -72
76 9 13 12 14 35 1z m241 -102 c66 -102 159 -277 160 -300 0 -39 -21 -13 -74
90 -30 59 -78 149 -106 200 -28 50 -47 92 -42 92 4 0 32 -37 62 -82z m380
-143 c77 -154 113 -260 77 -225 -24 23 -136 238 -153 295 -9 28 -22 67 -30 88
-40 108 12 30 106 -158z m-2765 175 c10 -16 -24 -70 -45 -70 -24 0 -38 44 -20
65 14 17 56 20 65 5z m-425 -27 c0 -26 -107 -234 -149 -289 -60 -79 -124 -68
-84 15 10 20 33 45 52 56 78 46 115 104 56 89 -18 -4 -25 -1 -30 15 -9 30 3
43 35 36 24 -5 28 -3 33 23 4 18 18 37 39 51 40 25 48 26 48 4z m2468 -49 c27
-18 29 -34 4 -34 -21 0 -42 18 -42 37 0 17 11 16 38 -3z m961 -80 c45 -89 63
-153 41 -139 -18 11 -100 188 -100 216 0 33 12 17 59 -77z m-4244 56 c4 -6 -7
-10 -25 -10 -18 0 -29 4 -25 10 3 6 15 10 25 10 10 0 22 -4 25 -10z m6246 -29
c13 -11 21 -22 17 -26 -8 -8 -58 23 -58 36 0 14 16 10 41 -10z m-4901 -25 c0
-24 -32 -61 -43 -49 -12 12 -7 46 9 64 20 22 34 16 34 -15z m2529 -64 c72
-109 179 -289 226 -382 26 -52 35 -82 33 -108 l-3 -37 -46 80 c-26 44 -76 136
-111 205 -36 69 -91 174 -123 234 -32 60 -53 106 -47 102 7 -4 39 -47 71 -94z
m-821 40 c2 -18 -1 -32 -8 -32 -13 0 -32 48 -24 61 11 19 29 2 32 -29z m-2488
-12 c9 -17 8 -20 -9 -20 -22 0 -35 15 -26 30 10 16 23 12 35 -10z m3011 -56
c29 -64 59 -171 59 -209 -1 -18 -3 -17 -24 7 -35 39 -86 179 -86 233 0 60 14
51 51 -31z m-3023 -17 c4 -20 -25 -34 -40 -19 -15 15 -1 44 19 40 10 -2 19
-11 21 -21z m862 -12 c-44 -46 -94 -48 -57 -3 16 21 48 37 71 38 17 0 15 -5
-14 -35z m3800 -1 c0 -16 -26 -19 -35 -4 -4 6 -4 18 -1 27 5 12 9 13 21 3 8
-7 15 -19 15 -26z m-1987 -27 c-8 -12 -33 20 -33 42 1 12 6 10 20 -8 11 -12
17 -28 13 -34z m2801 7 c20 -8 42 -44 27 -44 -5 0 -23 11 -38 25 -27 23 -22
32 11 19z m-1733 -92 c6 -17 7 -44 2 -72 l-9 -45 -21 40 c-24 47 -37 100 -28
115 10 16 44 -7 56 -38z m-3231 32 c0 -13 -52 -92 -83 -126 -39 -42 -61 -48
-77 -19 -18 34 -11 62 23 96 24 24 39 32 57 28 14 -2 34 3 45 11 21 16 35 20
35 10z m3504 -102 c37 -166 46 -431 21 -643 -25 -218 -43 -210 -45 21 -1 159
-16 541 -25 660 l-6 75 20 -23 c11 -12 26 -53 35 -90z m-1249 48 c26 -51 35
-80 25 -80 -12 0 -50 73 -50 95 0 23 8 18 25 -15z m1895 -14 c9 -11 9 -16 1
-16 -19 0 -61 31 -55 41 6 11 35 -3 54 -25z m-4485 2 c33 -15 29 -42 -7 -46
-17 -2 -34 4 -48 18 -36 36 -1 54 55 28z m2841 -158 c60 -102 60 -164 -1 -85
-26 36 -115 214 -115 231 1 18 73 -73 116 -146z m628 101 c21 -71 30 -141 19
-141 -16 0 -73 115 -73 147 0 63 35 58 54 -6z m2158 25 c99 -37 218 -96 218
-108 0 -16 -43 -2 -154 51 -93 45 -151 80 -134 81 4 0 36 -11 70 -24z m-2458
-47 c56 -50 88 -109 110 -206 19 -85 19 -83 6 -83 -5 0 -26 30 -46 68 -21 37
-50 86 -66 110 -32 46 -67 120 -68 140 0 21 15 14 64 -29z m1321 -7 c58 -28
100 -62 76 -62 -14 0 -119 53 -146 74 -33 26 3 19 70 -12z m585 -80 c0 -12 -4
-11 -21 4 -11 10 -25 27 -31 37 -8 16 -5 15 21 -4 17 -12 31 -29 31 -37z
m-4887 5 c-2 -23 4 -30 36 -43 22 -8 43 -26 50 -40 6 -14 32 -47 57 -75 26
-27 44 -52 41 -56 -19 -18 -237 179 -237 214 0 26 10 35 35 31 15 -2 20 -10
18 -31z m3398 -31 c13 -62 7 -96 -10 -53 -6 16 -14 46 -17 68 -10 60 13 48 27
-15z m-421 -137 c29 -54 40 -119 21 -119 -39 0 -173 230 -171 294 1 20 119
-118 150 -175z m2922 85 c79 -36 170 -72 203 -81 72 -18 104 -34 130 -63 l20
-23 -43 6 c-23 3 -98 31 -165 62 -67 31 -157 70 -199 86 -46 18 -94 46 -120
70 l-43 39 37 -15 c20 -8 101 -44 180 -81z m-5588 57 c10 -10 14 -21 9 -24
-12 -7 -47 8 -62 27 -12 14 -10 16 11 16 14 0 33 -9 42 -19z m3020 -68 c27
-55 38 -175 18 -195 -17 -17 -48 16 -66 70 -16 46 -22 133 -9 145 15 16 43 5
57 -20z m-2906 -50 c-2 -10 -13 -19 -26 -21 -24 -4 -29 7 -10 26 18 18 40 15
36 -5z m4487 -41 c-7 -7 -55 39 -55 52 0 5 13 -3 30 -19 16 -16 28 -31 25 -33z
m-1697 -59 c35 -50 78 -223 55 -223 -23 0 -93 166 -93 222 0 35 13 36 38 1z
m1937 -43 c16 -16 24 -30 19 -30 -6 0 -23 14 -39 30 -16 17 -24 30 -19 30 6 0
23 -13 39 -30z m-4767 -12 c-3 -7 -18 -14 -34 -16 -28 -2 -28 -2 -10 13 24 18
49 20 44 3z m2408 -15 c29 -30 58 -113 33 -97 -13 8 -69 94 -69 106 0 13 18 9
36 -9z m962 -160 c4 -51 5 -93 1 -93 -14 0 -29 102 -28 188 1 79 2 83 10 42 5
-25 12 -87 17 -137z m-712 50 c18 -32 15 -51 -6 -38 -11 7 -70 118 -70 132 0
11 57 -58 76 -94z m440 73 c-3 -13 -20 -60 -36 -104 -33 -85 -66 -127 -93
-116 -23 8 -21 22 8 69 14 22 25 47 25 55 0 8 14 39 30 68 21 36 37 52 51 52
17 0 20 -4 15 -24z m-343 -63 c35 -68 92 -283 76 -283 -22 0 -109 222 -109
279 0 38 15 40 33 4z m-383 -68 c35 -47 90 -146 90 -161 0 -15 -36 25 -80 91
-47 70 -80 128 -80 141 0 12 33 -21 70 -71z m196 -81 c35 -49 74 -128 74 -150
0 -31 -91 90 -139 183 -46 90 -10 72 65 -33z m418 -60 c3 -9 3 -20 0 -25 -8
-13 -34 9 -34 27 0 19 26 18 34 -2z m-539 -175 c20 -39 35 -73 32 -76 -12 -11
-138 187 -137 213 1 19 70 -72 105 -137z m595 95 c0 -35 -56 -200 -81 -241
-20 -31 -59 -46 -59 -22 0 6 23 64 50 129 28 65 50 122 50 127 0 11 21 33 32
33 4 0 8 -12 8 -26z m427 -106 c-21 -139 -40 -160 -33 -38 5 102 20 160 37
143 7 -7 5 -41 -4 -105z m-692 -39 c27 -52 35 -92 20 -98 -12 -4 -80 120 -91
164 l-7 30 28 -25 c15 -14 38 -46 50 -71z m519 45 c11 -27 7 -170 -9 -322 -74
-716 -346 -2272 -397 -2272 -18 0 -6 118 37 350 25 135 59 344 75 465 17 121
39 272 50 335 11 63 40 257 65 430 57 398 110 711 136 820 15 60 20 101 15
141 -3 31 -3 59 1 63 11 10 21 7 27 -10z m-688 -39 c16 -40 10 -63 -12 -44
-13 11 -21 79 -8 79 3 0 12 -16 20 -35z m541 -97 c-2 -18 -4 -4 -4 32 0 36 2
50 4 33 2 -18 2 -48 0 -65z m-508 -74 c37 -33 61 -87 46 -102 -7 -8 -32 22
-75 91 -35 56 -25 60 29 11z m-230 -76 c-1 -43 -2 -48 -9 -27 -7 24 -3 79 6
79 2 0 4 -24 3 -52z m483 -86 c3 -9 1 -26 -3 -37 -6 -15 -8 -11 -8 18 -1 40 4
48 11 19z m455 -44 c-2 -13 -4 -3 -4 22 0 25 2 35 4 23 2 -13 2 -33 0 -45z
m-577 0 c0 -9 -4 -20 -10 -23 -6 -4 -10 9 -10 32 0 28 3 34 10 23 5 -8 10 -23
10 -32z m280 7 c0 -13 -4 -27 -10 -30 -6 -4 -10 8 -10 30 0 22 4 34 10 30 6
-3 10 -17 10 -30z m89 -80 c0 -16 -6 -43 -14 -60 -12 -28 -13 -24 -13 60 0 84
1 88 13 60 8 -16 14 -43 14 -60z m-302 13 c-2 -13 -4 -5 -4 17 -1 22 1 32 4
23 2 -10 2 -28 0 -40z m180 -65 c-4 -17 -4 -17 -12 0 -4 9 -4 25 0 35 8 16 8
16 12 0 3 -10 3 -26 0 -35z m-462 -144 c25 -134 33 -204 23 -215 -4 -3 -10 7
-13 22 -4 16 -9 36 -11 45 -4 16 -34 253 -34 273 0 33 14 -19 35 -125z m179
88 c8 -12 8 -22 0 -34 -21 -33 -34 -26 -34 17 0 43 13 50 34 17z m592 -99 c-3
-68 -11 -139 -16 -158 -11 -40 -5 176 6 243 13 72 17 36 10 -85z m-719 50 c-2
-13 -4 -3 -4 22 0 25 2 35 4 23 2 -13 2 -33 0 -45z m-147 -95 c0 -94 -3 -124
-11 -116 -13 13 -25 179 -15 217 3 14 11 26 16 26 6 0 10 -51 10 -127z m630
61 c0 -35 -21 -104 -32 -104 -12 0 -10 61 3 99 13 38 29 41 29 5z m-385 -65
c8 -23 -7 -45 -24 -35 -6 4 -11 18 -11 32 0 30 26 32 35 3z m285 -114 c-5 -66
-12 -199 -15 -295 -6 -172 -18 -265 -36 -276 -6 -3 -7 31 -3 83 6 81 5 87 -10
68 -14 -19 -15 -17 -16 40 0 72 26 302 41 359 24 92 41 147 44 144 2 -2 0 -58
-5 -123z m-663 -97 c-2 -18 -4 -4 -4 32 0 36 2 50 4 33 2 -18 2 -48 0 -65z
m363 47 c0 -14 -4 -25 -10 -25 -5 0 -10 11 -10 25 0 14 5 25 10 25 6 0 10 -11
10 -25z m-144 -40 c16 -39 19 -141 5 -150 -18 -11 -31 34 -31 109 0 42 2 76 6
76 3 0 12 -16 20 -35z m-142 -56 c9 -46 7 -272 -3 -287 -12 -19 -21 70 -21
206 0 108 11 145 24 81z m102 -319 c5 -153 -10 -133 -20 25 -3 61 -8 133 -11
160 l-4 50 15 -55 c8 -30 17 -111 20 -180z m99 11 c-6 -14 -8 -14 -17 3 -7 13
-6 42 3 100 l14 81 3 -84 c2 -46 0 -91 -3 -100z m229 83 c16 -42 -3 -178 -32
-230 -10 -18 -11 -18 -19 1 -14 35 -6 194 12 221 18 28 30 31 39 8z m-1814
-75 c55 -25 90 -56 90 -81 0 -31 -27 -20 -78 32 -34 35 -57 50 -76 50 -14 0
-26 5 -26 10 0 16 42 11 90 -11z m2179 -86 c0 -36 -2 -43 -9 -27 -7 18 -3 74
6 74 2 0 4 -21 3 -47z m-829 -72 c22 -73 25 -389 4 -368 -2 2 -13 82 -24 178
-11 96 -23 194 -26 219 l-7 45 22 -19 c11 -10 26 -35 31 -55z m79 -82 c17
-125 19 -289 2 -289 -8 0 -15 74 -26 303 -6 114 6 107 24 -14z m141 60 c0 -24
-4 -38 -10 -34 -17 10 -11 75 7 75 2 0 3 -18 3 -41z m292 -127 c-1 -31 -14
-104 -27 -162 l-24 -105 2 150 c2 101 7 158 16 174 20 37 36 10 33 -57z m-144
-92 c-3 -89 -9 -135 -18 -143 -10 -10 -11 8 -7 98 12 206 32 243 25 45z m-181
-72 c-2 -24 -4 -7 -4 37 0 44 2 63 4 43 2 -21 2 -57 0 -80z m363 36 c0 -21 -4
-33 -10 -29 -17 10 -11 65 7 65 2 0 3 -16 3 -36z m-619 -21 c11 -30 3 -137
-10 -128 -10 6 -24 133 -16 145 10 16 15 12 26 -17z m559 -331 c-22 -121 -33
-223 -40 -363 -13 -283 -38 -485 -88 -719 -23 -105 -27 -118 -30 -82 -2 23 6
119 18 212 11 95 23 263 26 382 8 333 43 619 80 648 7 7 19 31 25 54 6 22 16
59 22 81 l12 40 3 -42 c2 -23 -11 -118 -28 -211z m-445 107 c0 -68 -9 -118
-20 -108 -2 3 -9 37 -15 76 -8 53 -8 77 0 93 21 40 35 17 35 -61z m-163 19
c-10 -22 -11 -21 -11 12 -1 26 2 31 11 22 8 -8 8 -17 0 -34z m288 -77 c0 -22
-4 -43 -10 -46 -6 -4 -10 12 -10 39 0 25 5 46 10 46 6 0 10 -18 10 -39z m155
-2 c8 -25 -2 -122 -17 -158 l-11 -26 -9 30 c-8 28 -4 117 8 158 7 23 21 22 29
-4z m-385 -24 c0 -13 -4 -27 -10 -30 -6 -4 -10 8 -10 30 0 22 4 34 10 30 6 -3
10 -17 10 -30z m297 -82 c-3 -10 -5 -2 -5 17 0 19 2 27 5 18 2 -10 2 -26 0
-35z m-100 -93 c-4 -32 -13 -74 -21 -92 l-14 -33 -1 58 c-1 54 19 127 35 127
4 0 4 -27 1 -60z m-153 -212 c1 -73 -6 -100 -21 -84 -11 11 -20 141 -14 201
l5 50 14 -45 c8 -25 15 -79 16 -122z m81 -149 c-15 -63 -28 -116 -31 -118 -14
-14 13 168 38 251 12 42 12 42 16 12 2 -17 -9 -82 -23 -145z m126 62 c2 -97
-3 -165 -13 -190 -10 -24 -11 -25 -18 -6 -10 24 -12 220 -3 254 6 23 7 23 20
6 7 -11 13 -39 14 -64z m79 4 c0 -14 -4 -25 -10 -25 -5 0 -10 11 -10 25 0 14
5 25 10 25 6 0 10 -11 10 -25z m-380 -294 c0 -125 -3 -256 -6 -290 -12 -114
-24 -62 -24 107 0 212 10 412 22 412 4 0 8 -103 8 -229z m609 122 c0 -40 -2
-44 -10 -25 -8 21 -3 72 7 72 2 0 4 -21 3 -47z m-203 -9 c9 -37 -7 -99 -26
-99 -10 0 -16 13 -18 42 -5 68 30 113 44 57z m-256 -248 c0 -14 -4 -28 -10
-31 -6 -4 -10 7 -10 24 0 17 5 31 10 31 6 0 10 -11 10 -24z m227 -188 c-3 -51
-11 -106 -19 -123 -12 -29 -13 -28 -16 40 -4 77 13 175 30 175 7 0 9 -30 5
-92z m-708 23 c39 -55 20 -71 -23 -20 -14 17 -26 35 -26 40 0 19 30 8 49 -20z
m321 -101 c0 -16 -23 -60 -32 -60 -10 0 -11 54 -1 63 10 10 33 8 33 -3z m427
-257 c-7 -85 -33 -187 -46 -179 -8 5 39 256 48 256 2 0 1 -35 -2 -77z"/>
<path d="M3670 9379 c0 -14 87 -98 158 -152 68 -52 178 -127 187 -127 3 0 -5
18 -17 41 -57 100 -328 298 -328 238z"/>
<path d="M2940 9499 c0 -17 27 -45 35 -37 3 3 -3 16 -14 29 -16 19 -20 20 -21
8z"/>
<path d="M3540 9041 c0 -23 35 -56 44 -42 9 14 -9 47 -29 55 -10 3 -15 -1 -15
-13z"/>
<path d="M3855 8840 c16 -16 33 -30 39 -30 5 0 -3 14 -19 30 -16 17 -33 30
-39 30 -5 0 3 -13 19 -30z"/>
<path d="M3195 8633 c18 -42 23 -49 31 -40 8 7 -26 77 -37 77 -5 0 -2 -17 6
-37z"/>
<path d="M4910 6505 c7 -8 24 -15 39 -15 25 1 25 1 7 15 -11 8 -29 15 -39 15
-16 0 -17 -3 -7 -15z"/>
<path d="M8274 5360 c0 -69 1 -97 3 -62 2 34 2 90 0 125 -2 34 -3 6 -3 -63z"/>
<path d="M8375 5455 c4 -11 10 -71 12 -132 7 -131 23 -153 23 -30 -1 90 -12
153 -31 171 -9 8 -10 6 -4 -9z"/>
<path d="M8470 5321 c0 -34 4 -61 10 -61 6 0 10 24 10 54 0 30 -4 58 -10 61
-6 4 -10 -17 -10 -54z"/>
<path d="M8091 5335 c-1 -22 8 -89 20 -150 22 -114 38 -162 39 -115 0 30 -25
174 -44 250 l-14 55 -1 -40z"/>
<path d="M8445 5089 c7 -63 22 -106 32 -96 8 9 -18 146 -29 153 -7 4 -8 -15
-3 -57z"/>
<path d="M8283 5090 c8 -64 29 -77 25 -16 -2 31 -8 51 -17 54 -11 4 -13 -4 -8
-38z"/>
<path d="M8366 5076 c-7 -30 2 -56 19 -56 15 0 25 22 25 56 0 33 -36 33 -44 0z"/>
<path d="M8436 4919 c-20 -30 -21 -79 -1 -79 8 0 17 12 21 28 3 15 7 32 9 38
2 6 0 16 -5 23 -5 10 -12 7 -24 -10z"/>
<path d="M8340 4535 c0 -14 5 -25 10 -25 6 0 10 11 10 25 0 14 -4 25 -10 25
-5 0 -10 -11 -10 -25z"/>
<path d="M3470 12395 c0 -11 61 -35 87 -34 27 1 26 1 -12 20 -38 17 -75 25
-75 14z"/>
<path d="M3727 12281 c3 -14 -3 -21 -26 -29 -45 -16 -38 -22 24 -22 62 0 70
12 32 48 -29 27 -37 28 -30 3z"/>
<path d="M3600 12141 c0 -8 31 -23 78 -36 43 -12 22 13 -25 29 -55 19 -53 19
-53 7z"/>
<path d="M3879 12108 c14 -16 22 -30 19 -33 -2 -3 -29 -1 -58 5 -77 15 -82 12
-20 -12 30 -11 73 -34 96 -49 46 -31 173 -189 283 -352 65 -95 91 -128 91
-114 0 10 -73 133 -112 192 -56 82 -259 334 -294 365 l-29 25 24 -27z"/>
<path d="M3580 12000 c0 -13 34 -30 59 -30 29 0 26 19 -5 30 -32 13 -54 13
-54 0z"/>
<path d="M3170 11622 c0 -14 23 -32 42 -32 26 0 22 15 -7 28 -31 14 -35 15
-35 4z"/>
<path d="M3346 11551 c16 -17 84 -42 84 -31 0 5 -13 16 -30 25 -33 17 -70 21
-54 6z"/>
<path d="M4314 11480 c4 -19 14 -42 22 -50 15 -14 16 -12 10 14 -4 16 -14 39
-23 50 -15 20 -15 19 -9 -14z"/>
<path d="M2940 11350 c0 -5 14 -16 30 -25 35 -18 41 -4 8 19 -26 18 -38 20
-38 6z"/>
<path d="M3460 11306 c32 -20 120 -49 126 -43 7 7 -76 44 -116 51 -35 7 -35 7
-10 -8z"/>
<path d="M4410 11261 c0 -6 18 -31 41 -57 33 -38 39 -52 35 -73 -13 -51 -11
-56 29 -76 l40 -20 -63 -7 c-35 -4 -79 -16 -98 -27 -19 -12 -39 -21 -45 -21
-16 0 -10 37 12 64 12 15 20 29 17 31 -4 5 -291 -68 -330 -83 -14 -6 -29 -16
-33 -22 -6 -9 16 -12 81 -10 118 3 124 2 124 -15 0 -22 38 -38 76 -32 20 3 34
1 37 -6 2 -8 48 -12 143 -13 136 -2 287 -23 308 -44 13 -13 -5 -19 -94 -28
-41 -5 -68 -11 -60 -14 8 -4 53 -18 100 -33 47 -14 100 -33 118 -41 48 -21 39
1 -13 32 -25 14 -45 28 -43 29 2 1 30 -1 63 -6 33 -4 125 -11 205 -15 80 -4
156 -11 170 -16 24 -9 24 -10 6 -24 -11 -8 -36 -14 -55 -15 l-36 -1 30 -13
c17 -7 66 -19 110 -26 55 -9 85 -19 96 -33 12 -14 39 -22 105 -32 49 -6 109
-18 134 -25 l45 -14 -47 -3 c-27 -2 -48 -6 -48 -10 0 -12 231 -103 294 -116
50 -10 62 -16 64 -34 2 -13 17 -29 35 -38 50 -25 67 -45 67 -75 0 -36 54 -84
84 -73 66 22 127 -4 159 -69 34 -72 222 -187 305 -187 34 0 49 -6 80 -34 20
-19 33 -38 29 -42 -11 -11 -127 14 -165 37 -39 22 -62 24 -62 6 0 -20 33 -47
99 -82 37 -20 56 -36 55 -48 -1 -12 6 -17 28 -17 24 0 32 -6 43 -34 8 -19 19
-38 25 -41 19 -11 40 15 34 41 -5 21 -3 24 24 24 18 0 51 -14 82 -36 28 -19
54 -33 57 -30 8 7 -166 185 -334 342 -118 110 -303 265 -417 350 -196 147
-351 257 -388 276 -23 12 -55 32 -71 44 -34 28 -370 194 -454 224 -34 12 -69
20 -76 17 -8 -3 -18 -23 -22 -44 -4 -21 -10 -31 -13 -23 -8 26 -34 50 -54 50
-10 0 -18 5 -18 10 0 6 4 10 8 10 5 0 17 6 27 14 18 13 12 16 -70 41 -270 79
-357 111 -451 161 -56 30 -109 54 -117 54 -8 0 -17 7 -21 15 -6 16 -26 21 -26
6z m371 -231 c21 -12 26 -40 6 -40 -7 0 -18 5 -24 11 -6 6 -38 9 -76 7 -70 -3
-74 0 -24 19 41 15 93 16 118 3z m62 -82 c19 -11 11 -13 -62 -16 -86 -3 -121
8 -91 29 19 13 123 3 153 -13z m580 -108 c51 -25 28 -32 -93 -28 -118 3 -151
12 -135 38 10 16 189 8 228 -10z m-268 -30 c4 -6 -5 -10 -19 -10 -14 0 -26 5
-26 10 0 6 9 10 19 10 11 0 23 -4 26 -10z m370 -60 c81 -21 195 -71 195 -86 0
-35 -147 2 -239 60 -42 27 -55 51 -23 43 9 -3 40 -10 67 -17z m305 -145 c33
-17 59 -55 38 -55 -53 0 -117 37 -103 60 9 14 31 13 65 -5z m253 -205 c30 -11
62 -29 72 -40 17 -19 15 -19 -56 2 -72 20 -129 44 -129 53 0 12 64 3 113 -15z
m338 -250 c10 -6 19 -18 19 -26 0 -13 -4 -13 -30 3 -45 26 -35 47 11 23z m118
-96 c17 -14 31 -30 31 -35 0 -12 -55 19 -77 44 -27 29 10 22 46 -9z"/>
<path d="M3179 11227 c8 -10 28 -17 49 -17 47 0 30 18 -24 27 -36 6 -38 5 -25
-10z"/>
<path d="M3818 11188 c17 -8 26 -8 34 0 9 9 4 12 -22 11 -33 0 -34 -1 -12 -11z"/>
<path d="M3345 11170 c-4 -6 7 -10 27 -10 25 0 29 3 18 10 -19 13 -37 13 -45
0z"/>
<path d="M3935 11170 c-4 -6 7 -10 27 -10 25 0 29 3 18 10 -19 13 -37 13 -45
0z"/>
<path d="M4060 11140 c0 -5 11 -10 25 -10 14 0 25 5 25 10 0 6 -11 10 -25 10
-14 0 -25 -4 -25 -10z"/>
<path d="M3000 11125 c7 -8 21 -15 32 -15 17 0 18 3 8 15 -7 8 -21 15 -32 15
-17 0 -18 -3 -8 -15z"/>
<path d="M2860 11062 c0 -8 92 -66 123 -78 31 -11 18 14 -19 35 -49 29 -104
52 -104 43z"/>
<path d="M2990 10886 c0 -7 7 -19 15 -26 12 -10 16 -9 21 3 3 9 3 21 -1 27 -9
15 -35 12 -35 -4z"/>
<path d="M4390 10860 c0 -5 11 -10 25 -10 14 0 25 5 25 10 0 6 -11 10 -25 10
-14 0 -25 -4 -25 -10z"/>
<path d="M5000 10381 c0 -13 84 -44 106 -39 14 4 8 10 -26 26 -48 23 -80 28
-80 13z"/>
<path d="M5750 10173 c66 -38 89 -62 100 -105 9 -32 15 -38 39 -38 86 0 251
-79 336 -161 33 -32 73 -62 88 -68 27 -11 45 -36 33 -48 -3 -3 -17 -1 -30 5
-13 6 -27 8 -30 5 -9 -9 14 -33 32 -33 8 0 32 -16 53 -35 31 -27 44 -33 66
-29 20 4 37 -1 56 -17 32 -24 52 -68 39 -81 -17 -17 -240 83 -368 163 -71 45
-87 49 -53 13 53 -56 150 -120 277 -181 139 -66 238 -127 357 -221 90 -71 175
-153 175 -169 0 -7 34 -47 75 -89 42 -41 87 -97 100 -124 29 -58 30 -60 9 -60
-9 0 11 -26 49 -62 65 -64 74 -82 101 -201 l7 -29 -30 18 c-17 10 -33 15 -37
11 -12 -12 18 -37 57 -47 78 -21 78 4 -4 163 -74 143 -173 294 -257 391 -33
38 -60 73 -60 77 0 5 24 -3 53 -16 63 -30 87 -31 157 -6 61 22 85 17 49 -10
l-23 -17 37 -7 c80 -15 172 -113 430 -460 185 -248 317 -446 395 -592 75 -141
87 -172 67 -180 -24 -8 -45 4 -45 27 0 17 -4 20 -21 15 -19 -6 -20 -4 -14 24
5 22 3 31 -6 31 -7 0 -26 12 -42 28 l-28 27 20 -47 c11 -26 25 -65 30 -86 6
-20 29 -69 52 -107 44 -74 131 -187 137 -180 3 2 -25 51 -61 108 -90 140 -90
142 -41 134 42 -7 64 -28 64 -63 0 -12 7 -24 15 -27 17 -7 40 -51 101 -194 61
-144 96 -213 105 -213 40 0 -331 781 -467 985 -121 181 -396 541 -596 780 -32
38 -79 110 -104 159 -55 107 -144 239 -213 316 -48 54 -79 64 -47 16 21 -32
20 -35 -4 -29 -12 3 -32 21 -46 39 -38 50 -124 71 -124 30 0 -17 279 -290 355
-347 30 -22 57 -49 60 -60 8 -26 -11 -58 -40 -65 -26 -7 -48 2 -40 16 19 31
-96 137 -137 126 -15 -3 -17 1 -12 20 5 18 2 24 -10 24 -10 0 -21 12 -27 28
-11 32 -31 46 -88 62 -32 8 -50 22 -76 58 -38 53 -60 68 -160 106 -99 37 -106
43 -66 53 l32 8 -37 49 c-49 64 -135 118 -252 157 -76 25 -92 34 -75 40 43 16
38 36 -17 64 -19 10 -47 28 -62 40 -15 13 -56 32 -90 44 -55 18 -284 71 -305
71 -5 0 12 -12 37 -27z m1280 -634 c17 -17 29 -34 26 -37 -7 -6 -86 48 -86 59
0 19 30 8 60 -22z m-245 -104 c34 -24 69 -54 77 -67 18 -27 104 -58 160 -58
45 0 69 -25 43 -44 -11 -8 -16 -20 -12 -30 4 -9 3 -16 -1 -16 -10 0 -210 115
-282 162 -30 20 -71 50 -90 67 -28 24 -32 32 -21 40 20 13 53 -1 126 -54z"/>
<path d="M5531 10014 c43 -33 277 -146 349 -170 59 -19 229 -26 265 -10 l20 8
-20 8 c-11 5 -57 9 -103 9 -64 1 -84 4 -88 16 -4 10 -20 15 -45 15 -42 0 -158
42 -302 109 -101 47 -126 52 -76 15z"/>
<path d="M4060 9997 c17 -17 110 -55 115 -47 3 5 -7 16 -22 23 -28 15 -103 34
-93 24z"/>
<path d="M3949 9916 c19 -23 145 -76 197 -82 70 -9 49 7 -74 55 -109 44 -143
51 -123 27z"/>
<path d="M4729 9691 c37 -33 87 -49 103 -33 21 21 0 39 -51 46 -28 4 -59 9
-69 12 -9 3 -2 -8 17 -25z"/>
<path d="M5900 9660 c0 -5 11 -10 25 -10 14 0 25 5 25 10 0 6 -11 10 -25 10
-14 0 -25 -4 -25 -10z"/>
<path d="M5296 9519 c30 -35 114 -64 114 -40 0 7 -111 61 -127 61 -3 0 2 -10
13 -21z"/>
<path d="M6460 9330 c0 -5 11 -10 25 -10 14 0 25 5 25 10 0 6 -11 10 -25 10
-14 0 -25 -4 -25 -10z"/>
<path d="M5770 9275 c24 -29 98 -75 130 -81 54 -11 32 11 -57 55 -49 24 -81
35 -73 26z"/>
<path d="M6360 9270 c0 -14 48 -35 58 -26 8 9 -26 36 -45 36 -7 0 -13 -5 -13
-10z"/>
<path d="M5661 9174 c18 -19 61 -49 94 -65 63 -31 135 -48 135 -33 0 5 3 19 6
32 6 21 3 22 -43 22 -37 0 -70 10 -132 40 -45 22 -85 40 -89 40 -3 0 10 -16
29 -36z"/>
<path d="M7260 9036 c24 -25 49 -46 54 -46 13 0 -53 69 -79 82 -11 6 0 -10 25
-36z"/>
<path d="M6728 9018 c17 -8 26 -8 34 0 9 9 4 12 -22 11 -33 0 -34 -1 -12 -11z"/>
<path d="M6275 8941 c23 -21 92 -51 118 -51 36 0 34 30 -3 40 -49 13 -124 20
-115 11z"/>
<path d="M6760 8925 c0 -11 61 -35 87 -34 27 1 26 1 -12 20 -38 17 -75 25 -75
14z"/>
<path d="M6220 8820 c0 -23 188 -97 218 -85 28 11 -19 41 -109 70 -87 27 -109
30 -109 15z"/>
<path d="M6775 8780 c40 -46 139 -68 152 -34 15 39 -40 71 -64 38 -11 -15 -18
-16 -41 -7 -15 6 -36 14 -47 18 l-20 8 20 -23z"/>
<path d="M6731 8644 c31 -31 101 -49 130 -33 30 16 17 34 -22 31 -19 -2 -54 4
-78 13 -58 20 -60 19 -30 -11z"/>
<path d="M7891 8201 c20 -25 41 -47 47 -49 22 -7 1 23 -42 58 l-41 35 36 -44z"/>
<path d="M1328 8015 c16 -30 299 -332 717 -765 390 -404 503 -524 538 -571 11
-16 30 -29 42 -29 20 0 65 -37 65 -53 0 -3 -26 -14 -57 -23 -34 -9 -68 -26
-81 -40 -26 -30 -54 -25 -71 12 -13 30 -2 57 38 91 l26 22 -43 1 c-36 0 -48
-5 -72 -32 -23 -25 -33 -29 -42 -20 -16 16 7 118 30 131 21 12 5 44 -25 49
-26 4 -45 -20 -52 -66 -8 -49 -35 -50 -39 -2 -1 19 -10 49 -19 67 -15 29 -15
33 0 57 24 36 21 48 -10 44 -28 -3 -28 -3 -25 -73 l4 -70 -37 35 c-68 64 -82
128 -39 179 28 34 25 51 -11 51 -28 0 -55 -34 -55 -71 0 -37 -10 -42 -37 -17
-34 32 -32 102 3 139 29 30 25 49 -11 49 -15 0 -36 -16 -63 -47 l-39 -47 -32
54 c-17 30 -30 64 -29 75 3 16 45 48 93 69 17 7 -18 26 -49 26 -22 0 -41 -12
-73 -45 -46 -49 -49 -47 -54 25 -4 51 1 61 42 79 30 14 36 20 22 23 -10 2 -32
1 -50 -4 -24 -6 -35 -17 -44 -43 -7 -19 -16 -35 -21 -35 -17 0 -39 63 -36 103
3 40 4 42 36 42 38 0 41 9 7 31 -30 20 -57 12 -90 -28 -30 -35 -47 -32 -70 12
-19 38 -11 51 48 82 30 15 37 22 26 29 -26 16 -79 10 -110 -13 -30 -22 -31
-22 -44 -5 -18 25 -10 46 33 83 41 35 36 54 -13 54 -25 0 -40 -8 -58 -30 -30
-35 -52 -38 -67 -9 -16 29 -6 62 32 104 57 65 -5 71 -66 6 -17 -17 -33 -31
-38 -31 -17 0 -8 78 12 103 25 32 26 57 1 57 -27 0 -51 -37 -51 -77 0 -18 -4
-33 -9 -33 -18 0 -69 50 -81 80 -16 39 -9 56 29 63 22 5 31 12 31 27 0 27 -48
27 -83 0 -34 -27 -55 -25 -69 5 -9 19 -8 31 3 53 7 15 15 30 17 35 10 20 -29
3 -46 -20 l-20 -27 -36 27 c-96 74 9 -50 328 -387 509 -537 1417 -1416 1463
-1416 15 0 63 94 63 123 0 24 -18 21 -40 -5 -15 -19 -22 -21 -37 -12 -29 18
-27 41 6 59 17 8 31 22 31 30 0 25 38 55 70 55 38 0 38 -10 -1 -39 -17 -13
-29 -25 -26 -27 2 -2 27 3 55 11 38 12 52 21 52 34 0 23 -72 91 -225 212 -176
140 -223 185 -879 838 -329 328 -593 587 -588 576z m1444 -1479 c19 -8 41 -22
48 -32 12 -14 12 -18 -3 -29 -10 -7 -36 -16 -59 -19 -57 -9 -68 -21 -68 -72 0
-24 -4 -44 -9 -44 -12 0 -75 76 -95 115 -18 35 -9 56 36 78 41 21 105 21 150
3z m78 -129 c0 -8 -12 -19 -26 -25 -15 -7 -34 -31 -46 -60 l-21 -47 -14 50
c-17 68 -17 72 15 83 41 15 92 14 92 -1z"/>
<path d="M3707 5963 c-6 -9 9 -99 18 -114 4 -5 22 -9 42 -9 45 0 100 -26 120
-57 14 -21 14 -25 -2 -43 -9 -10 -30 -22 -45 -25 -35 -8 -54 -29 -69 -77 -7
-21 -19 -42 -28 -46 -35 -20 33 -81 73 -65 8 3 28 -4 45 -16 l29 -22 0 38 c0
22 9 48 20 63 48 62 4 83 -49 23 -30 -34 -33 -35 -49 -20 -15 16 -15 19 4 44
29 38 99 73 149 73 50 0 65 -13 65 -57 0 -25 6 -36 28 -47 27 -14 164 -48 170
-42 1 2 -16 26 -38 55 -37 46 -50 56 -73 52 -4 -1 -12 10 -18 23 -6 13 -36 39
-66 57 -30 19 -110 73 -177 120 -149 105 -144 101 -149 92z"/>
<path d="M3650 5865 c0 -14 21 -45 31 -45 18 0 5 45 -13 48 -10 2 -18 1 -18
-3z"/>
<path d="M3659 5769 c-27 -27 -21 -55 11 -51 29 3 110 49 110 62 0 6 -22 10
-50 10 -37 0 -55 -5 -71 -21z"/>
<path d="M3956 5538 c-32 -70 -35 -91 -14 -96 34 -7 82 134 50 145 -7 3 -22
-16 -36 -49z"/>
<path d="M5440 4115 c0 -24 47 -136 74 -178 19 -29 41 -77 50 -107 9 -30 25
-66 37 -80 l21 -25 -5 56 c-6 66 -22 100 -88 187 -29 37 -49 74 -49 88 0 29
-16 64 -30 64 -6 0 -10 -2 -10 -5z"/>
<path d="M5690 3582 c0 -39 14 -69 44 -94 50 -41 48 -11 -4 67 -40 59 -40 59
-40 27z"/>
<path d="M5806 3376 c-18 -46 -18 -49 0 -87 20 -47 76 -99 104 -99 27 0 25 14
-9 52 -38 44 -53 74 -66 132 l-11 49 -18 -47z"/>
<path d="M5910 3097 c0 -8 16 -49 35 -92 20 -43 41 -100 46 -126 10 -47 55
-109 78 -109 17 0 13 16 -14 71 -14 27 -30 73 -35 102 -14 74 -110 209 -110
154z"/>
<path d="M6150 2746 c0 -12 72 -172 95 -211 51 -87 63 -38 15 63 -34 73 -87
152 -100 152 -6 0 -10 -2 -10 -4z"/>
<path d="M6070 2631 c0 -13 39 -60 60 -71 33 -17 32 7 -1 44 -29 34 -59 47
-59 27z"/>
<path d="M6659 435 c-9 -9 9 -84 29 -117 21 -36 36 -36 27 0 -10 43 -49 124
-56 117z"/>
</g>
</svg>
